<svg xmlns="http://www.w3.org/2000/svg" viewBox="0 0 254.22 205.93"><defs><style>.cls-1{fill:#231815;}.cls-1,.cls-2,.cls-3,.cls-4,.cls-5{fill-rule:evenodd;}.cls-2{fill:#fff;}.cls-3{fill:#3bbcd9;}.cls-4{fill:#f3a8b2;}.cls-5{fill:#cc4f60;}</style></defs><title>chase</title><g id="レイヤー_2" data-name="レイヤー 2"><g id="レイヤー_1-2" data-name="レイヤー 1"><path class="cls-1" d="M97.9,0,101,.7v.35h.35V2.8c-.64.71-.1,1.58,0,2.79l3.15-.35s-.08.35.7.35c.17-.18-.1-.55.35-.35.23.35.46.7.7,1,1.07.65.92-.63,1.4,1,1.29,1.3-.44,3.25-.7,5.25l3.84.35c.58,1.08.67.62.7,2.44-.55.48-.61.76-.7,1.75h.35v.35h1.75c.12.23.23.47.35.7l1.4.35c.46.37,0,.81.35,1.4l.7.35v3.84l-1,.35v.7c-.29.47-1.86.76-2.45,1v.35h-1c-.11.23-.23.47-.35.7h-.7v.35h-1.4V28H108l-.34.7h-1V29l-1.4.35v.35h-1.4v.35l-1.4.35v.35h-1v.35l-4.19.35v.35l-3.5.7v.35l-3.85.35v.34h-1v.35l-1.4-.69v.34L85.66,35v.35H85c-.12.24-.23.47-.35.7h-1c-1.36.61-5,2.22-7.69,1.4v-.35h-1.4L73.77,36l-2.1-.7v-.7H71a10.85,10.85,0,0,1,.7-6.64v-1H72v-.7h.35c.12-.7.24-1.4.35-2.1h.35l2.45-2.79c.47-.32,1.38-.25,1.75-.7v-.7l1-.7V18.18l1.4-.7v-.7l1-.7V15l.7-.35V14l.7-.35c.12-.35.24-.7.35-1.05h.7l.7-.7v-.7l.7-.35.7-1.05H86L88.46,7l1.05-.35v-.7h.69c.64-1.11,1.09-1.06,2.1-1.74.12-.24.24-.47.35-.7h.7L94.4,2.1h.7c1-.59,1.23-1.23,2.8-1.4Z"/><path class="cls-2" d="M93.7,6.29V7H93c-.94,1.59-2.59,2.25-3.85,3.5l-1.74,2.1-1,.7V14l-1.75,1.39c-.12.35-.23.7-.35,1l-.7.35v.7l-.7.35v1.05l-.7.35c-.2.47-.13,1.24-.35,1.75h.35l1.75,3.14,1,.7v.7l2.1,1.75.35.7c.79.57,1.49.68,2.1,1.4a20.72,20.72,0,0,0,6.29-1.05L98.94,28v-.35h.7v-.35H101v-.35h1v-.35h1.4v-.35h1.05v-.35h.7v-.35h1.4v-.35h.7l.35-.7,2.09-.35v-.35c.9-.43,1.63-.66,2.45-1v-2.1c-.65-.09-.7-.35-.7-.35h-3.15v-.35h-.69v-.35h-.35v.35H107v-.7c-1.07-1-.49-2.36,0-3.5h-2.8v.35l-2.1-.7c-.12-1.29-.53-1.92.35-2.79.4-.4,0-.14.7-.35l1-3.15c-2.24-.39-4.56,0-6.64-.35a12.36,12.36,0,0,1,0-3.84,3.72,3.72,0,0,0-1.4-.36A4.83,4.83,0,0,1,93.7,6.29Z"/><path class="cls-1" d="M100.34,13.64a2.72,2.72,0,0,0-1.4.69v.35l-1,.35c-.12.24-.24.47-.35.7l-1.4.35c-.12.24-.24.47-.35.7h-.7v.35h-1l-.35.7h-1v.35H92c-.12.23-.23.47-.35.7h-1l-.35.7H88.11c-.49-.91-.62-.59-.7-2.1.7-.37,1.42-1,2.1-1.4l1.39-.35c.12-.23.24-.46.35-.7l4.55-1.39v-.35l1.75-.35v-.35h.7c.33-.19.19-1,1-.7v.35C100,12.63,100.11,12.73,100.34,13.64Z"/><path class="cls-1" d="M99.29,18.53c.24.7.47,1.4.7,2.1h-.35V21l-1.74.35c-.24.35-.47.7-.7,1.05h-1v.35h-.7c-.12.23-.24.46-.35.7a6.88,6.88,0,0,1-2.8.69c-.44-.77-1.26-1.68-.7-2.44V21l1.4-.35c.12-.23.23-.47.35-.7H95.1v-.35h.7v-.35A7.84,7.84,0,0,1,99.29,18.53Z"/><path class="cls-2" d="M79,23.43v.69h.35v-.69Z"/><path class="cls-3" d="M79.37,24.47v.7h.69c.11,1.55,1.48,3.87,2.8,4.2.26,1,.1.78,1,1.05a3.51,3.51,0,0,0,.35,1.4l1-.35v-.35c-1.07-.64-1-1.45-1.75-2.45l-.7-.35a5.93,5.93,0,0,1-1.4-2.45l-1-.35V24.47Z"/><path class="cls-2" d="M80.76,32.87h-.7c-.25-2.73-3.14-4.75-3.84-7.35h-.35v.35c-.88.72-2.3,5.38-1.4,6.65s3.75,1.46,5.94,1.39C80.53,33.56,80.65,33.22,80.76,32.87Z"/><path class="cls-1" d="M182.51,55.59l3.15,1,.69,1,1.4.35c.12.23.23.47.35.7l1.4.35.35.7h.7v.35a2.89,2.89,0,0,0,1.4.7v.7A21.06,21.06,0,0,1,194,62.93v.7l1.05.35c.12.35.24.7.35,1.05l.7.35v.7c1.54.45.92.82,1.75,1.75l1.05.7v.7l.7.35v.7l2.45,2.09c.11.35.23.7.35,1,.34.24.7.47,1.05.7.34,1,.69,2.1,1,3.15.24.11.47.23.7.35.24.7.47,1.4.7,2.1l1.4,1v.69h.35v.7H208v1l.7.35v.7h.35c.11.93.23,1.87.35,2.8h.35c.11.7.23,1.4.35,2.1h.35v.7h.35v1.39h.35c.11,1,.23,2.1.35,3.15h.35c.32,1.12-.46,2.24-.35,2.8h.35v1h.35V100h.35c-.12.34-.24.69-.35,1v4.55h-.35v1.75h-.35v1h-.35a.88.88,0,0,0,.35,1,7.06,7.06,0,0,0-.35,1.4l2.09-.35v-.35l1.75-.35v-.35h.7v-.35h1.05v-.34h.7v-.35h1.05V108h.7v-.35h1.05v-.35l2.09-.7v-.35h.7c.59-.93,1.17-1.87,1.75-2.8h.7c.44-1.56,1-1,2.1-1.75l.7-1,1.4-.35,1-1.39h1.05V98.6c1.45-.72,4.85-2,6.29-.7a5.47,5.47,0,0,1,3.49,3.14h.7c.12.35.24.7.35,1H243v.7l.7.35v1H244v.7h.35V107h.35a12.77,12.77,0,0,1-.35,4.89c-.23.12-.46.24-.7.35v.7h-.35v1l-.7.35c-.11.35-.23.7-.35,1h-.35c-.11.46-.23.93-.35,1.4-.37.46-.83,0-1.4.35-.11.23-.23.46-.34.7l-1.4.35c-.12.23-.24.46-.35.69h-1v.35h-.7v.35h-1v.35l-3.49.7a.61.61,0,0,0-.71-.35v.35H229v1h-1.75V122h-.35v-.35l-2.1.7v.35h-.7v.35h-.7v.35l-1.4.35-.69,1h-1v.35c-.5.3-.61.24-1.4.35v.7l-2.45.7v.7c-1.58.17-2.12,1-3.5,1.39v.7h-1.39v.7c-1.24.13-1.06.44-2.1.7v.7l-2.1.35c-.33.63-.48.55-.7,1.4,2.49.41,7.85,3.45,8.39,5.59h.7v.35h.35v-.35h.7v-.35h2.1c.11-.23.23-.46.35-.69l1.4.34v-.34l1.74-.36c.12-.23.24-.46.35-.7l4.55-1,1.05-1.4,1.4-.35,3.84-4.2h.7v-.35h.7l.35-.7h.7c.12-.23.23-.46.35-.7l1.05-.35v-.69h1v-.7h.7c1-1.84,2.24-2.18,5.24-2.1.93-.87,2.47.11,3.5.35l2.1,2.8c.11,1.16.23,2.33.34,3.49h.35v.35h-.35v3.15H250v.7c-.24.11-.47.23-.7.35v.7h-.35v1l-1.05.71c-.12.34-.23.69-.35,1l-.7.35a7.1,7.1,0,0,0-2.1,2.8,5.5,5.5,0,0,0-2.8,1.75c-.11.23-.23.46-.35.7h-.69l-.71,1.05h-.69c-.12.23-.24.46-.35.7l-1.4.35c-.12.23-.24.46-.35.69l-1.4.35c-.12.24-.23.47-.35.7H234.6v.35h-1v.35H232.5v.35h-1.05V150h-1.74a19,19,0,0,1-2.45,1c.26.85.14.59.7,1.05v.35h1v.35h.7v.35l2.1.7v.35h1v.35l1.4.35v.35l2.45.35v.35h.7v.35h1.4v.34c.49,0-.14-.27.35-.34l7,.34V157h1.75v.35h1.4v.35L251,158v.35l1.05.35a4.33,4.33,0,0,0,1,1.75h.35v1.05h.35v2.1c0,.06.52.11.35.7l-.7.35c-.12,1.4-.23,2.79-.35,4.19l-1.75,2.45h-1l-.69,1.05h-.7v.35h-1.05v.35l-1.4.35v.35h-1.05v.35l-1.4.34v.36l-3.14.34v-.34h-3.5v-.36c-.43-.07-.6.62-1.4.36v-.36h-.7v-.34h-2.8c-.11-.24-.23-.47-.35-.7h-.7v-.35h-.69v-.35h-.7v-.35l-1.75.35v-.35h-.7V172l-1.05.35V172h-2.1v-.35c-.83-.22-.91.35-1.4.35v-.35H221v-.35c-.44-.07-.59.55-1.4.35a44.11,44.11,0,0,0-9.44-.7l-4.2-.35v-.35l-2.1-.35v.35a41.31,41.31,0,0,1-7.34,0l-.7.35v-.35l-5.94.7v.35l-.7-.35v.35h-1.4v.35H185.3V172h-1.39v.35l-1-.35v.35l-2.45.35c-.12.23-.23.46-.35.7h-1.75l-.35.7h-1.05v.34h-.7v.36h-1.05l-1,1.39h-1.05l-.7,1h-.7l-.35.7h-.7c-.12.35-.23.7-.35,1l-.7.35c-.82.85-1,1.42-2.45,1.75v.7h-.7v.35a9.56,9.56,0,0,0-1.39,1.75h-.36v1H164c-.39.73-.57.62-.7,1.75l3.14,2.8c.12.47.24.93.35,1.4l1,.7v3.14h-.35c-.11.7-.23,1.4-.35,2.1-.23.12-.46.24-.7.35-.34.47-.7.93-1,1.4h-.7v.7c-.79.09-.9.05-1.39.35V200h-1.05l-.35.7h-.7V201l-2.1.7v.35l-2.45.7c-.11.23-.23.46-.34.7h-1.75v.35h-.7v.35h-1.05v.34l-3.5.35v.35h-1v.35l-5.59.35v-.35a6.29,6.29,0,0,1-2.45-1.39v-.7l-1-.7v-3.85h.35v-1.4l.7-.35v-.7h.35v-.7h.35c.12-.35.23-.69.35-1h.7a7,7,0,0,1,3.5-2.79v-.35h-.35a5.15,5.15,0,0,0-1.4-2.45h-.35v-.7H143v-.7l-.7-.35-.7-2.1-.7-.35v-.69l-.7-.35v-.7h-.35v-1.4h-.35v-1.05h-.35v-1h-.35c-.4-1.24,0-2.93-.35-3.84a4.85,4.85,0,0,0,2.1-3.15h.7A3.39,3.39,0,0,1,142,171l1.05-.35v-.7h.7c1.12-1.82,3.81-2.06,4.89-3.84-.43-.23-.5-.58-.7-.71h-.7V165h-.69l-.36-.7h-.69l-1.4-1.75c-1.37-1-2.61-.91-3.5-2.45H139.5v-.7a5.84,5.84,0,0,1-2.45-1.75l-.35-.7h-1c-.12-.23-.24-.46-.35-.69h-.7l-.7-.7v-.7l-.7-.35c-.91-1-1.23-1.74-2.8-2.1v1.05c-2,.17-2.42,1.47-3.85,2.1l-2.79.35v.35l-2.1.34V157H121v.35h-1.4c-.11.24-.23.47-.35.7l-3.14.7v.35h-.7v.35h-2.1v.35h-.7v.35l-3.5.7-.35.7h-1v.35h-1v.35h-.7v.35l-1.75.35-.7,1-1-.35V164h-.7v.35h-1v.35h-1V165h-.7l-.34.69c-1.07.6-.37-.47-1.4.7h-.35c-.12.7-.24,1.4-.35,2.1l-.7.35v.7c-.68.88-1.27,0-1.75,1.75l1.4.7c.23,1,.46,2.1.7,3.14h.35v.71h.35v1h.35c.11.47.23.94.35,1.4h.35c-.12.7-.24,1.4-.35,2.1-1,.55-.63.86-2.1,1.05-.12.46-.24.93-.35,1.4l-2.1.7v.35h-.7l-.7,1h-1c-.23.35-.46.7-.7,1.05H87.06v.35h-.35c-.35-.17.08-.27-.7-.35A3.71,3.71,0,0,0,85,184.26h-.35v-.7l-.7-.35v-.7h-.35v-1h-.35v-.7h-.35v-1h-.35V179h-.35v-1h-.35v-1.05l-.7-.35v-1L79,173.77H78v-.35h-1v-.35l-1.4-.35a9.51,9.51,0,0,0-2.45-1.4v-.7h-.7v-.7h-.7a3.85,3.85,0,0,0-1-1.75h-.34c-.24-.7-.47-1.39-.7-2.09l-.7-.36c.11-.35.23-.69.35-1h-.35v-5.6h.35v-.7l.7-.35c.11-.81.23-1.63.35-2.44-1.06-.76-.16-.43-.7-1.4l-.7-.35v-1.05h-.35v-.7h-.35V151l-.7-.35c-.24-.7-.47-1.4-.7-2.1h-.35c-.12-.46-.23-.93-.35-1.39h-.35c-.12-.59-.23-1.17-.35-1.75l-.7-.35v-1h-.35V143H64v-.7h-.35v-.7l-.7-.35v-.7h-.35v-.7h-.35v-1l-.7-.35c-.11-.46-.23-.93-.34-1.4h-.36L60.14,135h-.35v-1.05h-.35c-.24-.7-.47-1.4-.7-2.1h-.35v-.7c-.61-1.1-1.18-1.06-1.4-2.8l-3.5.35V129H51.74v.36l-1.39.34v.35l-3.85.35v.35H42.3v.35H42v-.35H37.41v-.35H35v-.35h-1.4c-.11-.23-.23-.46-.35-.69H32.16V129h-.7v-.35h-1v-.35L28,128v-.34l-1.4-.35v-.35h-.7c-.11-.24-.23-.47-.35-.7l-1.4-.35c-.11-.24-.23-.47-.35-.7L22,124.82l-.35-.7H21c-.12-.23-.24-.47-.35-.7l-1.4-.35-.7-1-1.4-.35-.35-.7h-.7v-.35h-.7v-.35l-1.05-.35v-.7c-1.26-.35-1.9-1.34-2.79-2.09v-.35h-.7v-.35l-1.05-.7V115l-1.4-1v-.7l-.7-.35v-1.05l-.7-.35c-.11-.46-.23-.93-.35-1.4l-.7-.35c-.11-.46-.23-.93-.35-1.39-.23-.12-.46-.24-.7-.35l-1-3.15H3.5v-.7H3.14v-1H2.8v-.7H2.45c-.24-1.4-.47-2.8-.7-4.19h-.7a4.83,4.83,0,0,0,0-3.15H.7v-.7H.35V90.2H0V88.81H.35V84.26H.7V82.51h.35V80.77c.47-1.5,1.28-2.29,1.4-4.2,1.38-.41.44-.09,1-1h.34v-.7l.7-.35v-.7l1-.7v-.7c.24-.11.47-.23.7-.35C7.36,70.89,9,69.49,9.44,67.83h.7c1.09-1.75,3.58-1.9,4.19-4.2l3.15-1.05.7-1,1.4-.35v-.35h1.05v-.35h1.05v-.35h.69v-.35h1.4v-.35h1.05v-.35h1.4v-.35h1.4v-.35h.7V58c.46,0,.87.59,1.75.35V58h1.75c1.32-.42,5.11-1.34,7.34-.7v.35h3.49L50,60.14c.23.35.46.7.7,1h.7v.35h.69l.7.69h.7L55.94,65h.7l1,1.4h.7c.11.23.23.47.35.7h.7v.35l1.05.7v.7h.34c.49.52.19.45,1.05.7.23,1,.46.79.7,1.74h.7c.23.7.47,1.4.7,2.1h.7a4,4,0,0,0,1,1.75h.35c.12.58.23,1.17.35,1.75l1.4,1c.11.46.23.93.35,1.4l.7.35v1h.35c.11.46.23.93.35,1.39h.35v1.75h.35v1.4l.69.35v2.1h.35v1.4h.35v1.39H72V92h.35V93.7h.35v1h.35c.12,2.1.23,4.2.35,6.29h.35v5.25h-.35v1.4h-.35c-.12.93-.23,1.86-.35,2.79h-.35c-.23.7-.46,1.4-.7,2.1h-.35v.7l-.7.35c-.11.35-.23.7-.34,1.05-.72,1-1.15.17-1.4,2.1-2.11.65-.67,1.06-1.4,2.44l-1.4,1v.7h-.35c-.51,1,.36.66-.7,1.4v.35h.35v1l1.05.7v1l.7.35c.11.46.23.93.35,1.4l.7.35c.11.46.23.93.35,1.39l.7.36c.23.69.46,1.39.7,2.09l.69.35c.65,1.1-.62.91,1,1.4.47,1.28.94,2.56,1.4,3.84h.35v.7l.7.36v.69l.7.7v.7h.35v.7h.35v.7h.35c.11.47.23.93.35,1.4l.7.35c.11.58.23,1.16.35,1.75h.35a2.81,2.81,0,0,1,.7,1.75H79v.69c2,1.73,1.83,4.38,5.59,4.55l1-1.4h1c.11-.23.23-.47.35-.7h1v-.35h.7v-.35l1.74-.35v-.35h.7v-.35H92c.12-.23.24-.46.35-.7h1.4l.35-.69h.7v-.35h.7v-.36h1l.7-1h.7v-.35l1,.35v-.35h1.4v-.35h.7v-.35l2.45-.35v-.35h1.05V143h.7v-.35l5.59-1.4V140.2c-1-.25-.78-.09-1-1-2.4-.53-2-2.54-4.19-3.14-.3-1.39-1-1.53-1.4-2.8-1.67-.53-.4-.26-1-1.4l-.7-.35v-.7h-.35v-.7h-.35l-.35-1.05-.7-.35V128l-.7-.34v-.7l-1.39-1v-.7h-.35c-.24-.7-.47-1.4-.7-2.1H97.2v-1.4l-1.4-1c-.12-.46-.24-.93-.35-1.4H95.1v-1.74h-.35l-.7-2.1H93.7c-.12-1.17-.23-2.33-.35-3.5H93v-1.4h-.35v-.7H92.3v-1.39H92v-1H91.6v-2.1h-.35c-.11-2.21-.23-4.43-.35-6.64h.35c.12-1.64.24-3.27.35-4.9.77-2.3,1.74-4.23,1.75-7.34h.7c.12-.47.23-.93.35-1.4l.7-.35v-.7h.35v-.7h.35v-.7h.35c.32-.48.24-.61.35-1.4h.7v-1h.7c.56-2.71,3.17-3.81,3.84-6.3h.7v-.7h.7v-.7h.7c.3-2.11,0-5.36,0-8.39V60.49h.35v-.7h.35c-.12-.24-.24-.47-.35-.7h.35v-1.4h.35V57h.35V55.94h.35v-.7h.35c.61-1.35-.29-1.6,1.4-2.1v-.35l2.44-.34v.34h.7v.35l1.75.35v.35h.7v.35h.7l.35.7h.7v.35l2.1.35v.35h.69v.35h1v.35h1.4V57l1.4.35c.12.23.24.47.35.7h.7v.35c.52.35.87.27,1.75.35V58l1-.35v-.35l3.14-1.05v-.35h1.75v-.35l1.4-.35v-.35h1v-.35l2.8-.35v-.35h1v-.35h.7v-.35h1v-.35h.7v-.34a.54.54,0,0,1,.7.34l4.55-.34v-.36h2.09c.13,0,.09-.46.7-.34.06,0,.14.46.7.34v-.34h3.85V51.4h4.19v.35l4.55-.35c.42-.75.79-.77,1.05-1.75h.7c.3-1.26,1.07-1.55,1.4-2.8h.7c.35-.47.69-.93,1.05-1.4l1.05-.35v-.7a10.93,10.93,0,0,0,2.79-1h2.45V43l3.84.35v.35h1.75v.35C181.1,45.15,181.7,51.08,182.51,55.59Z"/><path class="cls-2" d="M165.72,51.75c1.43.32,1.46,1,1.4,2.79-1.34.79-1.09,1.07-3.49,1.05v.35l-1.75-.35v.35h-.35v-.35a26.21,26.21,0,0,0-7,0h-3.15L142,57c-.12.23-.23.47-.35.7l-3.5-.35v.35l-2.44.35v.35h-1v.35h-1.75v.35h-1.05v.35l-1.4.35v.35H129c-.11.23-.23.46-.35.7l-1.4.35-.34.69h-.7v.35h-.7l-.7.7h-.7c-.12.24-.24.47-.35.7a9.19,9.19,0,0,1-4.2,1.05c-.38-.73-.56-.62-.7-1.75.48-.4.54-.64.7-1.39l-1-.35c-.11-.24-.23-.47-.35-.7h-.7c-.11-.24-.23-.47-.34-.7h-1.75v-.35h-.7v-.35l-1.75-.35v-.35h-.7l-.35-.7c-1.13-.58-2.09-.17-3.15,0-.46,1.63-.93,3.26-1.39,4.89v.35h.35c.1.86-.29.88-.35,1.4.11,1.28.23,2.57.35,3.85l2.09.35a2.69,2.69,0,0,0,.7,1c-.23.7-.46,1.4-.7,2.09l-2.09,1.75c-.12.35-.24.7-.35,1h-.7v.7h-.7c-.3,1.15-1.09,1.65-1.75,2.45h-.35v.7l-.7.35v1l-.7.35v.7h-.35v.69h-.35c-.12.35-.23.7-.35,1.05h-.7c-.11.35-.23.7-.35,1H100v.7h-.35v1l-.7.35v1.4H98.6c-.12.46-.24.93-.35,1.4H97.9v1.05h-.35v.69H97.2c-.24,1.29-.47,2.57-.7,3.85h-.35V95.8H95.8v1h-.35c-.39,1.25,0,7.85.35,8.74h.35v1h.35v1.75h.35v.69h.35v1.75h.35v1h.35v1.05h.35v1h.35v.7h.34v1.4h.35c.12.81.24,1.63.35,2.45H100v.69h.35v1h.35v.7H101v.7l.7.35v.7l.7.35v.7l.7.35c.12.46.23.93.35,1.4l.7.35v.7h.35v.7l1.75,1.39v.71l.7.34v.7c.23.12.46.24.7.35v.7l1,.7c.12.35.24.7.35,1.05l1,.35c.89.66.68,1.37,2.1,1.75v.7c1,.25.78.09,1,1a2.94,2.94,0,0,1,1.4.7v.36l1.4.34c.46.59.93,1.17,1.39,1.75h.7v.35h.7v.35h1v.35l1.4.35V142h.7l.35.7h.7c.12.23.23.47.35.7h.7v.35l1-.35c.11.23.23.47.35.7h.7v.35l4.19.7v.35h1.05v.35h1v.34h1.05v.36h.7v.35c1.11.37,1.66-.47,2.44-.35v.35h3.85c.54-.18,2-1.14,2.8-1v.34h1.75v-.34l2.09-.35v.35h1.05v.34h.35v-.34h.7v-.35H151v-.35h1.05v-.35h1.75v-.35h1.74v-.35h1v-.35H158v-.35l1.4-.35v-.35h1v-.35h.7V142h1v-.35h2.1v-.35h1v-.35h1.4v-.35h.7v-.35l2.45-.35v-.35h.7v-.35l2.1-.35v-.35l1.4-.34v-.36h1v-.35l1.4-.35v-.34h1.05l.35-.7h1l.35-.7,2.1-.7c.23-.35.46-.7.7-1.05l1.05-.35c.11-.23.23-.47.35-.7h1l.7-1h1l.35-.7c1.34-.83,2.31-.26,2.8-2.1l1.75-.35v-.69c.32-.49.85,0,1.4-.35.11-.24.23-.47.35-.7h.69c.12-.24.24-.47.35-.7h.7v-.35h.7l.7-1h.7l1.75-2.1h.7l2.1-2.45.7-.35v-.7l1-.69v-.7l.69-.35v-1h.35v-.7h.35c.12-.47.24-.93.35-1.4h.35v-1h.35v-1.05h.35v-.7h.35c.12-1.05.23-2.1.35-3.14H207V107h.35v-2.8h.35a7.11,7.11,0,0,0-.35-3.15V95.8H207V93.7h-.35V92h-.35v-1.4h-.35v-1h-.35V88.46h-.35v-1.4h-.35c-.11-.47-.23-.93-.35-1.4h-.35c-.11-.58-.23-1.17-.35-1.75l-.69-.35v-1.4h-.36v-.7l-.69-.35v-1l-1.05-.7c-.24-.7-.47-1.4-.7-2.1H200a3.93,3.93,0,0,1-1.05-1.75h-.7v-.7c-1.18-.73-1.32-1.71-2.1-2.8l-1.4-1v-.7l-3.84-3.5v-.7h-.35l-1.4-1.75h-.7v-.7c-1.5-.37-1.21-1.12-2.1-1.75h-.69l-.36-.69-1.39-.35c-.12-.24-.24-.47-.35-.7h-1.05v-.35h-.7c-.12-.24-.24-.47-.35-.7l-1.4-.35v-.35l-2.8-.35-2.8-1.4c-.31-2.56-.58-3.28,2.8-3.15-.11-.81-.23-1.63-.35-2.44h-.35v-1.4h-.35c-.11-.47-.23-.93-.35-1.4h-.35c-.11-.23-.23-.47-.35-.7h-.7l-.34-.7h-2.45v.35h-1.75v.35h-.7v.35h-.7l-.7,1.05c-1,.68-1.39.4-1.74,1.75h-.36Z"/><path class="cls-4" d="M17.13,66.78c-.43,1.39-.09.43-1.05,1v.35h-.7l-1.05,1.75h-.7c-.11.23-.23.46-.34.7-1.2.77-1.62,0-2.1,1.74h-.7c-.33.63-.49.55-.7,1.4H9.44v1h-.7L8,75.87H7.69l-.35,1.4H7c-.23.7-.46,1.4-.7,2.1H5.94v1H5.59v.7H5.24v1H4.89c.12.24.24.47.35.7H4.89c-.23,1.75-.46,3.5-.7,5.25.12.46.24.93.35,1.4H4.19V93h.35v1.4h.35v1h.35V97.9h.35v1h.35v1.39h.35v.7h.35v1.75H7v.7h.35v1.05h.35v1H8v.7l1.05.7c.11.58.23,1.16.35,1.75l.7.34v.7l.7.35v.7l1.05.7v.7L14,114v.7l.7.35v.35l1.4.35v.35l1.05.35c.12.23.23.46.35.7h.7l1.05,1.4h.7c.11.23.23.46.35.69l1,.35v.35l2.09.7c.24.35.47.7.7,1l1.4.35.7,1h1.05v.35H28v.35H29v.35h.7v.35l2.1.7v.35h1.39c.12.23.24.46.35.7l1.75.35c.42-.27-.13-.44.35-.35v.35l7,.7v-.35l1.05.35a10.7,10.7,0,0,0,4.2-.7h2.45v-.35H51v-.35l2.45-.35c.12-.23.23-.47.35-.7l1-.35v-.35l2.1-.35v-.35h.7c.23-.35.46-.7.7-1,1.3-.92,2.39-.93,2.8-2.8,1.41-.42.44-.21,1-1l.7-.35v-.7l1-.7c.7-1,.69-1.81,1.75-2.45v-1h.7c.2-1.1.34-1.46,1.4-1.75.35-1.49,1.32-2.53,1.75-3.84V99.3h-.35v-.7h-.35c.05-.49.55-.57.35-1.4h-.35v-.35h.35V96.5h-.35v-1h-.35v-2.1h-.35V92h-.35V90.2h-.35V88.81h-.35c-.12-.82-.24-1.64-.35-2.45l-.7-.35c-.23-1.05-.47-2.1-.7-3.15l-.7-.35V81.46l-.7-.35c-.11-.46-.23-.93-.35-1.39-.23-.12-.46-.24-.7-.35v-.7h-.35a2.89,2.89,0,0,1-.7-1.4h-.69c-.25-2.59-2.2-3.13-2.8-5.25-1-.23-1.15-.39-1.4-1.39-1.15-.31-1.65-1.09-2.45-1.75v-.35h-.7c-.23-.35-.46-.7-.7-1h-1v-.7l-1.39-1v-.35L49,65c-.12-.23-.24-.46-.35-.7H47.55l-.35-.7h-.7l-.7-.7h-.7v-.35h-.7v-.35h-.7v-.35l-1.05.35v-.35l-1.4-.34v-.35H36.36v.35h-4.2v.34L29,62.23v.35h-1.4v.35h-1.4v.35h-1.4v.35h-2.1c-.11.24-.23.47-.35.7h-1v.35h-.7V65h-.7l-.7,1Z"/><path class="cls-1" d="M51.4,69.93v.7c1,.22.79.45,1.74.69V72c1.26.32,1.93,1.37,2.8,2.1v.35h.7l.7.7v.7l1,.7v.7h.7V78h.7a2.45,2.45,0,0,0,.7,1.75h.34l.36,1.39.69.35c.12.7.24,1.4.35,2.1A16.54,16.54,0,0,1,63.28,86H64v.7l.7.35c-.12.7-.23,1.4-.35,2.1h.35v1H65v1.4h.35v.7h.35c.12.94.23,1.87.35,2.8l.7.35V97.2h.35c.1.58-.33.62-.35.7.11,1.16.23,2.33.35,3.49h-.35v1.75h-.35v2.1h-.35v.7h-.35c-.12.7-.23,1.4-.35,2.1l-.7.35v1.39l-.7.35v.7h-.35v.7h-.35c-.11.59-.23,1.17-.35,1.75h-.35a4.06,4.06,0,0,0-1,1.75h-.7l-.69,1.4h-1v.35l-1.05.35v.35h-.35l-1,2.79h-1.4v.35c-.59.29-2.16.6-2.45,1v.7a17,17,0,0,0-2.44,1h-2.1v.35H46.5v.35h-.35v-.35H45.8v.35h-.7v.35c-1.27.45-3.42-.23-4.19-.35H38.46v-.35H37.41v-.35H35.66v-.35H33.91v-.35H32.16v-.35h-1V122H30.07c-.12-.23-.24-.46-.35-.7h-1.4V121l-1.4-.35v-.35h-.7c-.12-.23-.23-.46-.35-.7l-1.4-.35c-.7-.81-1.39-1.63-2.1-2.44L21,116.43c-1.32-.93.2-1.55-2.45-1.75v-1.05c-1.75-.48-.82-1.25-2.45-1.75-.11-.58-.23-1.16-.35-1.75H15c-.46-.93-.93-1.86-1.4-2.79h-.7c-.81-3.47-3.67-5.21-3.84-9.44h-.7c-.12-1.4-.23-2.8-.35-4.2H7.69c-.11-.56.34-.64.35-.7.16-.84-.34-.9-.35-1.4H8v-.35H7.69c-.12-1.63-.23-3.26-.35-4.89h.35v-.7H8V82.51a8.81,8.81,0,0,1,1.4-2.44l.7-.35v-1h.35a4.12,4.12,0,0,0,1-1.75c1-.25.78-.1,1.05-1,1.7-.38,3.08-1.75,4.19-2.8.12-.23.23-.46.35-.7h.7c.12-.23.23-.46.35-.7h.7v-.35h.7V71h1.05v-.35h.7c.11-.24.23-.47.35-.7l1.74-.35c.12-.24.24-.47.35-.7h.7v-.35l2.1-.35v-.35l1.4-.35v-.35h.7v-.35h1v-.35h.7v-.35h2.45v-.35h1.39v-.35c1.87-.55,8.5.27,9.79.7v.35h1.4v.35l1.4.35v.35h.7c.12.23.23.47.35.7h.7l.35.7h.7v.35A2.51,2.51,0,0,0,51.4,69.93Z"/><path class="cls-2" d="M29,70.63c.19,2.58,1.6,3.61,2.1,5.94h.7v.35l2.09-.7v-.35H35c.12-.23.23-.47.35-.7l3.15-1c-.37-1.81-1.51-2.55-1.75-4.54A33.53,33.53,0,0,0,29,70.63Z"/><path class="cls-1" d="M165.37,69.93c.18.76,1.07,1.86.71,2.79l-.71.35v.7l-1.74.35c-.12.23-.24.47-.35.7h-1.05v.35l-1.4.35v.35h-1.05v.35l-1.4.35v.35h-.7l-1.05,1.4h-2.79c-.72-1.2-1.35-1.09-1.4-3.15l5.59-2.8c.12-.23.24-.46.35-.7h.7l.35-.69,2.45-.35c.11-.24.23-.47.35-.7h.7v-.35C163.05,69.54,164.63,69.92,165.37,69.93Z"/><path class="cls-2" d="M44.4,71l-1.75-.35c-.11-.24-.23-.47-.35-.7H40.91v.35h-.35c.44,1.12.58,1.92,2.09,2.09V72h1.4v-.35C44.45,71.28,44.19,71.67,44.4,71Z"/><path class="cls-2" d="M19.93,82.51l2.44-.35c.12-.23.24-.46.35-.7h.7v-.35h.7v-.34l1.75-.36.35-.69h1.05v-.35L28.32,79a10,10,0,0,0-1.05-2.45v-1l-1.05-.7c-.59-1,.53-.44-.7-1.4v-.35H23.77v.35L22,73.77c-.12.24-.24.47-.35.7H21c-.12.23-.24.47-.35.7h-.7v.35h-1.4c-.12.35-.23.7-.35,1-.69.78-.08,1.75.35,2.45h.35v1.39h.35v1h.35Z"/><path class="cls-2" d="M50,74.82v-.7c-.71-.2-.31,0-.7-.35a19.77,19.77,0,0,0-5.6,2.45c.24.7.47,1.4.7,2.1l.7.35c.12.7.23,1.4.35,2.1l.7.34c.22.38-.06,1.17.35,1.4h1.75c.8-.86.77-.25,1.75-.7v-.35h.7v-.35h.7v-.34h1v-.36h1.4c.12-.23.24-.46.35-.69h1.05v-.35c-.43-.35-.69-1.14-1.05-1.4h-.7v-.35A9.58,9.58,0,0,1,51,74.82Z"/><path class="cls-2" d="M43.35,84.26c-.48-2.84-2.07-4.77-3.14-7-.46.18.1.15-.35.35h-1c-.12.23-.24.46-.35.7H37.41l-.35.7H36v.35l-1.75.35c-.07,0-.36.52-.7.69.2.71,0,.31.35.7A14,14,0,0,0,35,83.91l1,.7c.26.38.31,1.54.7,1.75h1.4V86h1l.35-.7h1.74l.36-.7Z"/><path class="cls-2" d="M14.68,79.37l-2.09,2.79-1.05.7V85h-.35v1.4a6.53,6.53,0,0,0,2.44.35c1.15-1.26,2.88-.91,3.15-3.15-.77-.72-.58-1.45-1.05-2.45h-.35V79.72C15.15,79.6,14.92,79.48,14.68,79.37Z"/><path class="cls-1" d="M120.27,80.77l1.4-.36v-.69l7.69-.35v.35h2.1v.35c1,.24,1,.62,1.75,1v.35h-.35c-1,1.75-2.21,1.4-4.2,2.1v.35h-3.84v.35l-2.45.35c-.91-.29-1.42-1.53-2.1-2.1Z"/><path class="cls-2" d="M24.12,91.6c2.64,0,4.09-1.33,5.95-2.09l3.14-1.05V86.71c-.93-.6-2.49-3.33-2.79-4.55l-3.85,1.4c-.12.23-.23.47-.35.7h-1.4c-.11.23-.23.47-.35.7h-.7a7,7,0,0,0-2.09,1.4l.69.35v1.4h.35l.36,1.4.69.35C23.89,90.44,24,91,24.12,91.6Z"/><path class="cls-2" d="M48.6,86A2.92,2.92,0,0,0,49,87.76h.35c.11.58.23,1.16.35,1.75H50v1c.23.12.46.24.7.35.47.89-.11,1,.7,1.75V93h1.39c.55-.63.69-.3,1.4-.7V92h.7l.35-.7h2.1V90.9h1v-.35a2.9,2.9,0,0,1,2.1-.69c-.12-.35-.24-.7-.35-1h-.35v-.35h.35c-.12-.47-.24-.94-.35-1.4h-.35V86h-.35v-.7l-.7-.35c-.24-.82-.47-1.63-.7-2.45a4.59,4.59,0,0,0-2.8,1h-.7c-.11.23-.23.47-.35.7l-1.75.35-.35.7Z"/><path class="cls-1" d="M169.92,86c.08,1.72.68,2,1.05,3.15v5.59c-1.07.74-.16.45-.7,1.4-1.17,1.4-2.33,2.8-3.5,4.19h-.69l-.36.7-1.39.35v.35h-1.4v.35h-.7v.35h-2.1v.35h-.7v.35h-1.75v.35l-8.39-1c-.11-.23-.23-.46-.35-.7h-.7v-.35h-.7c-.33-.18-.19-1-1-.7V101h-.36c-.44.77.06,1.79-.35,2.45l-.69.35c-.12.47-.24.93-.35,1.4L140.9,108h-.7l-.35.7H137.4v.34l-4.54-.34v-.35h-2.1V108h-.7v-.35h-.7c-.11-.24-.23-.47-.35-.7h-.7l-1-1.4h-.34v-.7l-.7-.35v-1.75c-1.2-1.26.43-5.11.7-6.29h1.39c1.34,2.8.08,7.16,3.5,8,.33.33,4.26,1.36,5.24,1v-.35h1.4v-.35c1.54-.36,3.38-2.42,3.85-3.85V98.6h.35c.29-1.07.11-3.7-.35-4.2-.38-1.37-1-1.15-1.75-2.1h-.35v-.7c-1.25-.32-1.1-.91-1-2.44.4-.4.14,0,.35-.7,1.14-.32,4.44-2.48,5.6-2.1v.35h.69v.35c1.58.74,1.37-.43,1.4,2.1a5.7,5.7,0,0,0-1.4,2.09h.35c.17.42.14.89.36,1.4h.34v1l1,.7v.7h.35c.12.58.24,1.17.35,1.75h.35c.72.77.66.12,1.05,1.4,2.08.21,4.23,1.85,7,1a22.47,22.47,0,0,1,6-1.4c.57-.87,1.89-1.33,2.44-2.1v-.7l1-.7v-.7c1.29-2.48.91-4.86.7-7.34.92-.49.6-.62,2.1-.7C169.62,86.06,169.22,85.8,169.92,86Z"/><path class="cls-2" d="M11.19,90.55c.11.94.23,1.87.35,2.8h.35c-.12.47-.24.93-.35,1.4h.35a27.26,27.26,0,0,1,.7,2.8A3.82,3.82,0,0,0,14,97.9c.59-.84.26-.22,1-.7v-.35h.7l.35-.7h.7V95.8h1l.7-1,1-.35v-.35c.52-.31,1.11.15,1.4-.35V92a11.74,11.74,0,0,1-2.45-4.19l-1.05.35v.35H16.43v.35h-1c-.11.23-.23.46-.35.7h-.7c-.11.23-.23.46-.35.69l-.69-.34v.34Z"/><path class="cls-2" d="M38.81,89.51c-.2.7,0,.3-.35.69q1.22,2.46,2.45,4.9l.7.35v1.4H42v.35c2.73-.46,3.78-1.91,6.3-2.45-.12-1.34-.66-1.6-1-2.45v-1l-.7-.35-1-3.14C42.72,87.84,41.27,89.2,38.81,89.51Z"/><path class="cls-2" d="M26.22,94.75a4.89,4.89,0,0,0,1.05,2.1h.35c.12.7.23,1.4.35,2.1l1.05.69c.12.47.23.94.35,1.4.35.47.87.25,1.4,1l8-3.14v-1c-1-.87-1.08-2.28-1.75-3.5h-.35v-.7l-.7-.35v-.7h-.35l-.35-1.05-2.1.7v.35L30.77,93c-.12.24-.24.47-.35.7A15.39,15.39,0,0,1,26.22,94.75Z"/><path class="cls-2" d="M53.49,95.8c.12.35.23.7.35,1h.35c.23,1.05.47,2.1.7,3.15l1,.69.7,2.1c2.51-.47,3.59-2,6.64-2.1-.23-1.39-.46-2.79-.7-4.19l-.7-.35v-1.4h-.35c0-.49.28.14.35-.35V93Z"/><path class="cls-2" d="M14.33,101.39v.7H15c0,.88,0,1.25.35,1.75h.35v.7l.7.35v1h.35c.12.35.23.7.35,1,1.12.27.75.52,2.1.7.62-.69.75-.29,1.4-.7.11-.24.23-.47.35-.7H22l.69-1.05h1.4c.12-.23.24-.47.35-.7h1.05v-.35c.74-.38.86-.07,1.4-.7h-.35v-1l-2.1-1.75c-.11-.69-.23-1.39-.35-2.09l-.7-.35v-.7c-.13-.21-.47-.28-.7-.7l-1,.35v.35H20.63l-.7,1L18.88,99v.35H17.83v.34h-.7V100h-.7l-.35.69h-.7V101Z"/><path class="cls-2" d="M44.4,100.34c.09,1.89.76,2,1.4,3.15v.7h.35c.12.47.23.93.35,1.4h.35a2.94,2.94,0,0,1,.7,1.4l5.59-2.45v-1.05c-.8-.71-.22-.85-.7-1.75l-.7-.35v-1c-.45-1-1.07-1-1.39-2.44C48.08,98.35,46.91,100,44.4,100.34Z"/><path class="cls-2" d="M225.86,109.43a22.57,22.57,0,0,0-5.24,2.1h-1.05v.35h-.7v.35h-1.05v.35h-1l-.35.7h-1.75c-.11.23-.23.47-.35.7h-.7l-.35.7h-1l-.35.7-1.4.35-1,1.4c-.42.29-1.47.26-1.75.7v1h-.35v.7l-1.05.7v1l-1.05.7v.35h-.7l-2.09,2.45-1.05.35v.7c-2.85.59-4.1,3.48-6.65,4.19v.7l-2.09.7-.7,1-2.1.7-1,1.4h-.7l-.7,1c-1.07.66-.91-.63-1.4,1.05l-1.05.34v.35c-1,.35-2.09.71-3.14,1v.7c-1.09.23-.73.55-1.05.7h-1.4v.35l-1.4.35v.35h-1.05c-.11.23-.23.47-.35.7h-1.05V142h-.69v.35h-1l-.35.7h-.7v.35h-2.45v.35h-1.05v.35h-.7c-.19.11-.21.5-.7.7-.47-.16.13-.23-.35-.35l-.7,1-3.14.35v.34h-1.75v.36h-1v.35h-1.4l-.35.69-5.24.7v.35l-2.1.7v.35l-2.45.35v.35h-1v.35h-2.79V151h-1v.35h-2.1v.35c-1.79.55-4.21-.23-5.6-.35v.35h.35c.4.4,0,.14.7.35v.7c.49.24.44.51.7.7.89.64.66-.38,1.05,1,2.19.55,2.4,2.49,4.9,2.79v.7c.44.24.47.55.7.7h.69l.71,1.05h.69l1.05,1.4h.7c.12.23.24.47.35.7l3.15,1.05c.12.23.23.46.35.7l2.45.35c.11.23.23.46.34.7h.71V165H158v.34l1.75.35c.21,1,1.15,2.05.7,2.45-1,1.39-1.91,1.14-3.5.7h-2.79v-.35h-2.1l-5.59,3.15v.7h-.71c-.11.35-.23.7-.34,1l-1.4,1v.7l-.7.36V178H143v.35h.35v1.05h.35v2.1h.35c.23.7.46,1.4.7,2.1l.7.35v.7l.69.69.36,1.4.69.35c.12.35.24.7.35,1h.35a3.93,3.93,0,0,1,1.05,1.75l1.05.35v.35c1.5,1,1.81.52,1.75,3.15a9.16,9.16,0,0,1-5.6,1.4v.69h-1c-.43.75-.79.77-1,1.75-.74.71-.73,2-.7,3.5,1.28.68,2.06.72,4.19.7l3.15-1.05v-.35l1.05.35v-.35h.7V200l2.8-.35a17,17,0,0,1,2.44-1v-.7c1.85-.33,2.83-1.35,4.55-1.75.3-1.2.72-.9,1.05-2.1h.35c-.59-1.16-1.17-2.33-1.75-3.49h-.7v-.7l-1.05-.7v-.35h-.7l-.35-.7c-.41-.27-1.5-.28-1.75-.7v-.7h.35v-1l1-.35V185l1.05-.69v-.7l1.05-.35c.12-.35.23-.7.35-1.05l1-.7.35-1.4,1-.35.35-.7c1.18-1.13,2.39-1.9,3.14-3.49h1v-.7c1.27-.33,1.42-1.08,2.8-1.4a3.29,3.29,0,0,1,1.75-2.1h1.05V171a3.93,3.93,0,0,1,1.74-1.05c.12-.35.24-.7.35-1l3.5.35v-.35h1.4l.35-.7h1v-.35h1.05v-.35H185v-.35h3.15a38.5,38.5,0,0,1,10.49-1h3.85a.89.89,0,0,1,1.05-.36v.36h5.94v.34l2.45-.34v.34h1.74v.36h5.25v.34h1v.35h4.89v.35l5.25.35c.06,0,.11-.54.7-.35.11.24.23.47.34.7l1.4.35c.12.23.24.47.35.7h1.4c.12.23.24.47.35.7l4.9.35c.74.24,2,1.19,3.49.7V171h1c.12-.23.23-.47.35-.7l2.45-.35v-.35a3.08,3.08,0,0,1,1.4-.7v-.7l1-.35c.23-1.16.46-2.33.7-3.49h-.35c-.12-.7-.24-1.4-.35-2.1h-.35c-.12-.35-.24-.7-.35-1l-5.6-1.05v.35l-4.54.7v-.35H236.7l-.35-.7h-1l-.35-.7-2.1-.35v-.35h-.7v-.35h-.7V158h-.69v-.35h-1v-.35l-1.4-.35v-.35l-1.05.35v-.35h-.7l-.35-.69a8.28,8.28,0,0,0-3.85-1.4v-.7c-3.27-1.53-5-4.88-7-7.7l-1.4-1c-.11-.35-.23-.7-.35-1l-.7-.35c-.11-.47-.23-.93-.34-1.4l-.7-.35-1-1.4h-.7v-.35c-.52-.48-.46-.18-.7-1l-5.25-2.1v-.34h-1v-.35h-.7V136l-1.05-.35a9.16,9.16,0,0,1,3.14-5.95v-.34h.7l.7-.71h.7v-.35h.7V128h.7v-.34h.7c.11-.24.23-.47.35-.7h1c.23-.35.46-.7.7-1h.7l.7-.7h.69v-.35h.7v-.35l1-.35.35-.7,1.75-.35c.12-.23.23-.47.35-.7h1l.7-1.05,1.4-.35c.11-.23.23-.46.35-.7l1.39-.35c.12-.23.24-.46.35-.7h1.4v-.35c.4-.39.14,0,.35-.69,1.59,0,2.1-.64,3.15-1.05h1.05v-.35l.7.35.35-.35a.74.74,0,0,0,.7.35v-.35h1.75v-.35h2.09v-.35h.7v-.35h1.05v-.35h1l1.05-1.4,1.05-.35c.11-.58.23-1.17.35-1.75l.7-.35a4.29,4.29,0,0,0,.34-2.45c.69-.9-1.09-4.59-1.39-5.94-1-.25-.79-.1-1.05-1h-.7l-.7-1c-.59-.19-.62.34-.7.35H233.9l-.35.7h-.7v.35l-1.4.35c-.11.24-.23.47-.35.7h-.69C228.91,104.49,226.1,107.26,225.86,109.43Z"/><path class="cls-2" d="M32.51,105.24v1.4c.47.23.94.46,1.4.7v1.4h.35v.69l.7.35v.7h.35v.7c.12.19.48.29.7.7,1.8-.37,2.24-1.51,4.2-1.75v-.7a8.83,8.83,0,0,0,3.84-1V108H43.7c-.11-.35-.23-.7-.35-1.05H43v-1c-.23-.12-.46-.24-.7-.35v-.7l-.69-.35v-1.4h-.7c-.12-.35-.24-.7-.35-1l-3.15,1.4h-1v.35h-.7C34.56,104.41,34.16,105,32.51,105.24Z"/><path class="cls-2" d="M58.74,105.94a2.83,2.83,0,0,0,.7,2.1h.35c-.12.35-.24.7-.35,1h.35c.39.4,0,.14.7.35.14-.69,1.57-3,.7-3.49h.69c.12-.35.24-.7.35-1h-1A3.3,3.3,0,0,1,58.74,105.94Z"/><path class="cls-2" d="M23.42,112.23v1c1.94.51,2.25,2.17,4.55,2.45v-.35l2.1-.35v-.35l2.09-.7c-.1-2.83-2.22-4.25-2.79-6.64L27.62,107c-1.62,1.85-5.08,1.94-6.64,3.84h.35A2.61,2.61,0,0,0,23.42,112.23Z"/><path class="cls-2" d="M54.54,115.73V115l1.75-.35c.55-1,.86-.63,1.05-2.1-1.11-.81-.72-1.74-1.4-2.8l-.7-.35-.35-1h-1.4v.35h-1.4c-.11.23-.23.46-.35.69H51v.35l-1,.35c.3,1.58.69,1.23,1.4,2.1l-.36.7.7.35c.12.47.24.93.35,1.4l.7.35c.12.35.24.7.35,1Z"/><path class="cls-2" d="M38.11,114.68c-.12.47-.23.93-.35,1.4,2.67.85.36,3.73,4.54,3.84,1.28,1.2,6.29-.74,7.7-1-.12-.34-.24-.69-.35-1H49.3v-.7H49c-.12-.59-.24-1.17-.35-1.75l-1.05-.7c.12-.23.23-.47.35-.7l-1-.7v-.7H46.5c-.54-.57-.29-.58-1.4-.7-.81.89-.89.28-2.1.7v.35H41.61v.35h-.7c-.12.23-.24.47-.35.7H39.51v.35Z"/><path class="cls-2" d="M32.51,117.48v.7l2.1.35v-1A3.58,3.58,0,0,0,32.51,117.48Z"/><path class="cls-4" d="M60.14,126.22a2.44,2.44,0,0,0,.35,1.4h.34v1.75h.36c.11.46.23.93.34,1.39l.7.35,1.05,3.15.7.35c.12.46.23.93.35,1.4l.7.35c.12.46.23.93.35,1.39l.7.36c.12.58.23,1.16.35,1.74h.35v.7h.35c.11.47.23.93.35,1.4h.35V143h.35v1.05h.35c.11.35.23.7.35,1l.7.35v1.4l.7.35v.69h.34c.12.47.24.94.35,1.4l.7.35v.7H72v.7h.35c.59,1.31-.18,1.49,1,2.45v.35h1.4c.5-.76.83-.71,2.1-.7.22-1,.45-.8.7-1.75a5.78,5.78,0,0,1-2.1-3.15h-.7c-.23-.7-.47-1.39-.7-2.1h-.35v-.69l-.7-.35c-.23-.7-.46-1.4-.7-2.1l-.7-.35V142h-.35v-1H71v-.7l-.69-.35v-1c-.4-.85-1.11-1.34-1.4-2.44h-.7c.58-1.72,0-1.23-.7-2.45v-.7l-.7-.35v-1.05l-.7-.35v-1.05l-.7-.35c-.23-.69-.47-1.4-.7-2.1l-.7-.34c-.11-.35-.23-.7-.35-1.05h-.35a2.62,2.62,0,0,1-.7-1.75C61.23,125.17,61.49,125.84,60.14,126.22Z"/><path class="cls-2" d="M233.55,135.66v.7l-.7.35v.34h-.7c-.34.47-.7.94-1.05,1.4h-.69v.35h-1l-.35.7h-1v.35h-.7l-.35.7h-1l-.35.7h-1v.35h-1.05V142h-.7v.35l-3.84.35c.23,2.29,1.58,2,2.1,3.85l1,.35c-.19,1-.26,0,0,1a7.15,7.15,0,0,0,2.8.35v-.35h1.4l.35-.69,1.75-.35v-.35h2.1v-.36h1v-.34h1.05v-.35h1.05l.7-1h1.4v-.35A9.11,9.11,0,0,1,238.1,143v-.7h.7c1.44-1.73,4.6-3.19,5.24-5.59h.7c.12-.47.23-.94.35-1.4l.7-.35v-1.4h.35c.55-1.65,0-2.27,0-4.19a5.9,5.9,0,0,0-3.15-1.06c-.73,1.21-1.06.7-2.09,1.4l-1.05,1.4h-.7l-1.4,1.75H236.7c-.12.23-.23.47-.35.7l-1,.35v.35l-.7.35v.7Z"/><path class="cls-2" d="M87.76,154.19v.7c-1.55.06-2.61,1.22-4.2.7v-.35h-.7v-.35h-2.8v.35H79v.35l-1.4.35v.35l-1.75.34-.35.7h-1v.35c-.72.64-.23.7-1.4,1a23.82,23.82,0,0,0,0,6.64h.7v.71l1,.34,1.05,1.4h.7v.7c.63.33.55.49,1.4.7.8.73,2.31-.12,3.49.35.12.23.24.47.35.7a18.39,18.39,0,0,0,3.5-.7l3.15-.35v-.35h.69c.24-.35.47-.7.7-1.05h.7v-.35c.47-.35.94-.69,1.4-1.05v-.7l1-.69a8.83,8.83,0,0,0,2.45-4.55h1.4v.35h.7c.29.15.12.71.7.7v-.35h.69v-.35h1v-.35h.7v-.35h.7c.12-.23.23-.46.35-.7h1.4v-.35l2.1-.7V158h1.05v-.35h.7v-.35c.94-.41,1.92-.25,2.79-.7v-.34h.7v-.35h1.4v-.35h1.4v-.35h1.4v-.35h1v-.35l3.14-.7c.12-.23.24-.47.35-.7l2.45-.35v-.35h.7v-.35h1v-.35h1.4l.35-.7h1v-.35c1.85-.66,1.69.5,2.79-1.4h-.35v-.35a8.88,8.88,0,0,0-1.4.35c-.11-.23-.23-.46-.34-.7h-1.4v-.35l-1.75-.35v-.35h-.7v-.34h-1v-.35h-.7v-.35h-1c-.23-.36-.46-.7-.7-1.05h-1a6.49,6.49,0,0,1-2.79-1.75c-.37.18-.61.65-.7.7l-1.75.35c-.12.23-.23.46-.35.7h-2.8v.35h-1v.34h-1v.36h-1v.35h-1.4v.35h-.7v.34h-1.75v.35l-1.4.35v.35l-2.1.35v.35h-.7v.35l-1.39.35v.35l-3.15.7-.35.7H93c-.12.23-.23.47-.35.7l-1.75.35c-.11.23-.23.46-.35.7h-1.4v.35Z"/><path class="cls-5" d="M84.26,174.12l1.4,4.19H86v1.05l.7.35v.7h.35c.11.35.23.7.35,1.05,2,0,2.9-.7,4.54-1.05.32-1.23.85-1,1-2.45h-.35v-1.75H92.3a2.7,2.7,0,0,1-.7-1.75h-.7v-.69c-.91-.49-.59-.62-2.09-.7a1.83,1.83,0,0,1-1.75.7v-.35h-.35v.35Z"/></g></g></svg>