<?xml version="1.0" encoding="UTF-8"?>
<svg width="185px" height="28px" viewBox="0 0 185 28" version="1.1" xmlns="http://www.w3.org/2000/svg" xmlns:xlink="http://www.w3.org/1999/xlink">
    <!-- Generator: Sketch 54.1 (76490) - https://sketchapp.com -->
    <title>Group 12</title>
    <desc>Created with Sketch.</desc>
    <g id="Welcome" stroke="none" stroke-width="1" fill="none" fill-rule="evenodd">
        <g id="Mobile-Portrait-Copy" transform="translate(-67.000000, -1054.000000)">
            <g id="Group-12" transform="translate(67.000000, 1054.000000)">
                <path d="M38.808,2.72 L32.584,2.72 C32.232,2.72 31.96,2.4 31.96,1.984 C31.96,1.584 32.232,1.264 32.584,1.264 L40.6,1.264 C41.24,1.264 41.72,1.648 41.72,2.144 C41.72,2.384 41.592,2.608 41.352,2.784 C41.288,2.832 41.224,2.88 40.904,3.04 C40.264,3.376 36.92,5.28 35.48,6.112 C36.376,6.08 36.488,6.064 37.128,6.048 C37.432,6.032 38.888,5.952 41.448,5.824 C42.6,5.76 43.176,5.728 43.208,5.728 C43.704,5.728 44.024,6.064 44.024,6.608 C44.024,7.104 43.752,7.392 43.272,7.408 L41.304,7.488 C38.168,7.616 35.576,9.264 35.576,11.12 C35.576,11.904 36.008,12.496 36.808,12.8 C37.528,13.072 38.968,13.264 40.2,13.264 C40.872,13.264 41.176,13.52 41.176,14.112 C41.176,14.72 40.856,14.992 40.104,14.992 C38.376,14.992 36.648,14.672 35.72,14.192 C34.44,13.52 33.8,12.56 33.8,11.312 C33.8,9.616 35,8.272 37.208,7.52 C34.632,7.616 32.648,7.728 30.952,7.856 C30.792,7.872 30.776,7.872 30.76,7.872 C30.28,7.872 29.944,7.536 29.944,7.056 C29.944,6.464 30.264,6.224 31.048,6.224 C31.208,6.224 31.576,6.224 32.584,6.192 L32.776,6.192 L33.208,5.936 C35.816,4.384 37.592,3.36 38.808,2.72 Z M49.688,8.336 C50.68,7.168 51.592,6.624 52.52,6.624 C53.816,6.624 54.488,7.552 54.488,9.312 C54.488,9.552 54.488,9.68 54.456,10.096 C54.424,10.464 54.408,10.912 54.408,11.248 C54.408,11.776 54.456,12.176 54.536,12.416 C54.696,12.912 55.16,13.216 55.752,13.216 C56.488,13.216 57,12.816 57.464,11.888 C57.864,11.072 58.248,9.776 58.456,8.512 C58.536,7.984 58.792,7.712 59.224,7.712 C59.752,7.712 60.088,8 60.088,8.464 C60.088,9.248 59.48,11.584 59.016,12.608 C58.28,14.192 57.24,14.896 55.672,14.896 C54.616,14.896 53.752,14.48 53.272,13.744 C52.952,13.264 52.808,12.512 52.808,11.408 C52.808,11.104 52.824,10.864 52.84,10.32 C52.872,10.032 52.872,9.808 52.872,9.648 C52.872,8.624 52.648,8.208 52.072,8.208 C51.384,8.208 50.52,8.8 49.736,9.824 C49.144,10.592 48.232,12.368 47.544,14.112 C47.352,14.592 47.096,14.816 46.696,14.816 C46.152,14.816 45.72,14.448 45.72,13.984 C45.72,13.792 45.736,13.728 45.96,13.2 C47.208,10.192 49.272,5.856 51.432,1.712 C51.72,1.136 51.72,1.136 51.784,1.072 C51.928,0.88 52.168,0.768 52.408,0.768 C52.872,0.768 53.256,1.104 53.256,1.488 C53.256,1.712 53.224,1.776 52.92,2.304 C52.152,3.68 50.856,6.096 49.688,8.336 Z M70.744,9.712 L70.744,6.56 C70.744,6.144 71.112,5.84 71.624,5.84 C72.152,5.84 72.504,6.144 72.504,6.56 L72.504,10.288 C73.768,10.832 74.744,11.392 75.72,12.096 C76.072,12.336 76.216,12.576 76.216,12.88 C76.216,13.344 75.832,13.776 75.416,13.776 C75.176,13.776 75.08,13.728 74.712,13.44 C74.056,12.96 73.384,12.528 72.488,12.032 C72.328,13.984 71.128,15.008 69.032,15.008 C66.84,15.008 65.416,13.952 65.416,12.32 C65.416,10.688 66.984,9.52 69.144,9.52 C69.672,9.52 70.104,9.568 70.744,9.712 Z M70.744,11.664 L70.744,11.248 C70.104,11.04 69.64,10.96 69.08,10.96 C67.816,10.96 66.984,11.488 66.984,12.288 C66.984,13.088 67.768,13.6 68.984,13.6 C70.072,13.6 70.744,12.864 70.744,11.664 Z M64.776,4.496 L62.792,4.496 C62.408,4.496 62.12,4.176 62.12,3.712 C62.12,3.264 62.408,2.944 62.792,2.944 L65.304,2.944 C65.544,2.176 65.672,1.712 65.816,1.072 C65.928,0.64 66.184,0.416 66.584,0.416 C67.096,0.416 67.512,0.736 67.512,1.12 C67.512,1.248 67.496,1.312 67.432,1.52 L67.144,2.512 C67.112,2.624 67.08,2.704 67,2.944 L69.384,2.944 C69.768,2.944 70.04,3.28 70.04,3.728 C70.04,4.176 69.768,4.496 69.384,4.496 L66.488,4.496 C65.56,7.104 64.696,9.008 63.752,10.496 C63.608,10.72 63.544,10.8 63.512,10.864 C63.336,11.072 63.08,11.2 62.824,11.2 C62.36,11.2 61.976,10.848 61.976,10.416 C61.976,10.192 62.024,10.096 62.328,9.6 C63.096,8.4 64.12,6.256 64.776,4.496 Z M72.312,2.192 C72.632,2.192 73,2.416 74.008,3.232 C74.728,3.824 75.16,4.208 76.056,5.056 C76.296,5.264 76.392,5.472 76.392,5.712 C76.392,6.128 75.976,6.544 75.56,6.544 C75.352,6.544 75.176,6.464 74.984,6.272 C74.392,5.68 73.672,5.04 71.96,3.6 C71.704,3.392 71.608,3.216 71.608,2.976 C71.608,2.576 71.96,2.192 72.312,2.192 Z M82.616,4.064 L79.368,4.064 C78.952,4.064 78.632,3.744 78.632,3.312 C78.632,2.88 78.952,2.56 79.368,2.56 L82.776,2.56 C82.824,2 82.888,1.536 82.936,1.216 C83.016,0.752 83.288,0.512 83.752,0.512 C84.312,0.512 84.664,0.816 84.664,1.264 C84.664,1.344 84.664,1.392 84.632,1.504 C84.6,1.68 84.568,1.904 84.504,2.432 L84.488,2.56 L90.456,2.56 C90.888,2.56 91.176,2.864 91.176,3.312 C91.176,3.76 90.888,4.064 90.456,4.064 L84.312,4.064 L84.312,4.128 L84.248,4.672 L84.168,5.504 C84.152,5.6 84.152,5.728 84.136,5.856 C84.808,5.76 85.4,5.712 86.024,5.712 C89.592,5.712 91.896,7.472 91.896,10.192 C91.896,11.696 91.24,12.912 89.928,13.808 C89.048,14.416 87.32,15.024 86.472,15.024 C85.992,15.024 85.704,14.72 85.704,14.224 C85.704,13.76 85.912,13.584 86.552,13.456 C88.904,13.024 90.136,11.872 90.136,10.112 C90.136,8.976 89.656,8.144 88.648,7.552 C87.576,9.44 86.248,11.008 84.584,12.336 C82.84,13.728 81.576,14.336 80.408,14.336 C78.968,14.336 78.12,13.344 78.12,11.648 C78.12,9.408 79.656,7.488 82.424,6.272 C82.488,5.456 82.536,4.816 82.616,4.064 Z M82.36,7.84 C80.728,8.704 79.704,10.16 79.704,11.616 C79.704,12.432 80.04,12.88 80.664,12.88 C81.192,12.88 81.768,12.624 82.616,12.032 C82.44,10.912 82.344,9.792 82.344,8.576 C82.344,8.48 82.344,8.16 82.36,7.84 Z M87.128,7.088 C86.824,7.056 86.552,7.04 86.28,7.04 C85.576,7.04 84.84,7.12 84.024,7.28 C83.992,7.872 83.992,8.16 83.992,8.544 C83.992,9.472 84.024,10.016 84.12,10.816 C85.448,9.6 86.488,8.32 87.128,7.088 Z M102.744,9.712 L102.744,6.56 C102.744,6.144 103.112,5.84 103.624,5.84 C104.152,5.84 104.504,6.144 104.504,6.56 L104.504,10.288 C105.768,10.832 106.744,11.392 107.72,12.096 C108.072,12.336 108.216,12.576 108.216,12.88 C108.216,13.344 107.832,13.776 107.416,13.776 C107.176,13.776 107.08,13.728 106.712,13.44 C106.056,12.96 105.384,12.528 104.488,12.032 C104.328,13.984 103.128,15.008 101.032,15.008 C98.84,15.008 97.416,13.952 97.416,12.32 C97.416,10.688 98.984,9.52 101.144,9.52 C101.672,9.52 102.104,9.568 102.744,9.712 Z M102.744,11.664 L102.744,11.248 C102.104,11.04 101.64,10.96 101.08,10.96 C99.816,10.96 98.984,11.488 98.984,12.288 C98.984,13.088 99.768,13.6 100.984,13.6 C102.072,13.6 102.744,12.864 102.744,11.664 Z M96.776,4.496 L94.792,4.496 C94.408,4.496 94.12,4.176 94.12,3.712 C94.12,3.264 94.408,2.944 94.792,2.944 L97.304,2.944 C97.544,2.176 97.672,1.712 97.816,1.072 C97.928,0.64 98.184,0.416 98.584,0.416 C99.096,0.416 99.512,0.736 99.512,1.12 C99.512,1.248 99.496,1.312 99.432,1.52 L99.144,2.512 C99.112,2.624 99.08,2.704 99,2.944 L101.384,2.944 C101.768,2.944 102.04,3.28 102.04,3.728 C102.04,4.176 101.768,4.496 101.384,4.496 L98.488,4.496 C97.56,7.104 96.696,9.008 95.752,10.496 C95.608,10.72 95.544,10.8 95.512,10.864 C95.336,11.072 95.08,11.2 94.824,11.2 C94.36,11.2 93.976,10.848 93.976,10.416 C93.976,10.192 94.024,10.096 94.328,9.6 C95.096,8.4 96.12,6.256 96.776,4.496 Z M104.312,2.192 C104.632,2.192 105,2.416 106.008,3.232 C106.728,3.824 107.16,4.208 108.056,5.056 C108.296,5.264 108.392,5.472 108.392,5.712 C108.392,6.128 107.976,6.544 107.56,6.544 C107.352,6.544 107.176,6.464 106.984,6.272 C106.392,5.68 105.672,5.04 103.96,3.6 C103.704,3.392 103.608,3.216 103.608,2.976 C103.608,2.576 103.96,2.192 104.312,2.192 Z M113.336,4.608 L110.472,4.608 C110.104,4.608 109.832,4.288 109.832,3.84 C109.832,3.392 110.104,3.072 110.472,3.072 L113.688,3.072 C113.832,2.368 113.896,2.048 114.024,1.28 C114.104,0.768 114.36,0.528 114.824,0.528 C115.368,0.528 115.784,0.848 115.784,1.28 C115.784,1.376 115.784,1.408 115.736,1.6 L115.496,2.608 L115.416,2.96 L115.384,3.072 L120.136,3.072 C120.504,3.072 120.792,3.408 120.792,3.856 C120.792,4.288 120.504,4.608 120.136,4.608 L115.016,4.608 C113.992,8.544 112.904,11.872 111.768,14.528 C111.608,14.912 111.352,15.072 110.952,15.072 C110.424,15.072 109.976,14.736 109.976,14.336 C109.976,14.16 109.976,14.16 110.328,13.344 C111.448,10.816 112.616,7.408 113.336,4.608 Z M120.568,13.072 L123.208,12.928 C123.64,12.928 123.96,13.296 123.96,13.808 C123.96,14.208 123.752,14.512 123.416,14.624 C123.208,14.688 122.408,14.736 121.592,14.736 C119.656,14.736 118.104,14.592 117.272,14.352 C116.168,14.016 115.592,13.28 115.592,12.208 C115.592,11.168 116.04,10.432 116.68,10.432 C117.112,10.432 117.528,10.8 117.528,11.2 C117.528,11.296 117.496,11.376 117.448,11.504 C117.4,11.616 117.352,11.824 117.352,11.984 C117.352,12.352 117.544,12.64 117.864,12.752 C118.376,12.944 119.512,13.072 120.568,13.072 Z M122.552,6.368 C123.096,6.368 123.432,6.656 123.432,7.136 C123.432,7.488 123.24,7.792 122.952,7.904 C122.84,7.936 122.84,7.936 122.392,7.936 C120.76,7.952 118.44,8.096 117.304,8.24 C117.24,8.256 117.192,8.256 117.16,8.256 C116.744,8.256 116.44,7.92 116.44,7.456 C116.44,7.104 116.616,6.832 116.904,6.736 C117.304,6.592 120.76,6.368 122.552,6.368 Z M128.056,0.896 C128.568,0.896 128.936,1.216 128.936,1.648 C128.936,1.696 128.936,1.696 128.824,2.48 C128.6,4.048 128.408,7.152 128.408,9.424 C128.408,10.992 128.504,13.104 128.632,13.904 C128.648,14.016 128.648,14.064 128.648,14.112 C128.648,14.592 128.216,14.944 127.656,14.944 C127.272,14.944 126.984,14.736 126.888,14.4 C126.792,13.952 126.664,11.312 126.664,9.584 C126.664,6.64 126.92,2.96 127.224,1.536 C127.304,1.136 127.64,0.896 128.056,0.896 Z M132.104,2.48 L138.648,2.48 C139.064,2.48 139.368,2.832 139.368,3.312 C139.368,3.776 139.064,4.128 138.648,4.128 L132.104,4.128 C131.704,4.128 131.416,3.792 131.416,3.296 C131.416,2.832 131.704,2.48 132.104,2.48 Z M139.08,12.208 C139.544,12.208 139.88,12.576 139.88,13.072 C139.88,13.52 139.624,13.856 139.208,13.936 C138.808,14.016 137.432,14.08 136.312,14.08 C134.44,14.08 133.24,13.92 132.28,13.536 C131.128,13.088 130.472,12.112 130.472,10.864 C130.472,10.32 130.584,9.84 130.808,9.328 C130.984,8.976 131.24,8.784 131.576,8.784 C132.04,8.784 132.472,9.136 132.472,9.52 C132.472,9.648 132.44,9.744 132.36,9.936 C132.264,10.112 132.2,10.48 132.2,10.736 C132.2,11.28 132.472,11.696 132.968,11.92 C133.592,12.224 134.728,12.384 136.056,12.384 C136.952,12.384 138.328,12.304 138.888,12.224 C139,12.208 139.032,12.208 139.08,12.208 Z M150.184,1.952 L149.816,10.256 C149.8,10.72 149.48,11.024 149,11.024 C148.52,11.024 148.2,10.72 148.184,10.256 L147.816,1.952 C147.784,1.312 148.264,0.864 149,0.864 C149.736,0.864 150.216,1.312 150.184,1.952 Z M149,12.24 C149.736,12.24 150.36,12.864 150.36,13.6 C150.36,14.352 149.752,14.96 149,14.96 C148.248,14.96 147.64,14.352 147.64,13.6 C147.64,12.848 148.248,12.24 149,12.24 Z" id="そんなあなたに！" fill="#FCA400" fill-rule="nonzero"></path>
                <path d="M0.5,1 L26.8341668,27.3341668" id="Line-2" stroke="#AB8B67" stroke-linecap="square"></path>
                <path d="M157.962919,0.46291937 L184.297086,26.7970862" id="Line-2-Copy" stroke="#AB8B67" stroke-linecap="square" transform="translate(170.962919, 13.962919) rotate(-269.000000) translate(-170.962919, -13.962919) "></path>
            </g>
        </g>
    </g>
</svg>