<svg xmlns="http://www.w3.org/2000/svg" viewBox="0 0 696.46 415.35"><defs><style>.cls-1{fill:#4a4a4a;}</style></defs><title>アセット 4</title><g id="レイヤー_2" data-name="レイヤー 2"><g id="レイヤー_1-2" data-name="レイヤー 1"><path class="cls-1" d="M325.62,247.67c-4.37,5.56-14,14.2-18.53,16.09a18.38,18.38,0,0,1-8.24,2c-4.63,0-7.46-2.48-7.46-6.74,0-7,9.91-20,9.91-22,0-.59-.26-.83-.78-.83-3.47,0-20.72,19.88-23.68,23.54s-6.18,6-10.68,6c-2.06,0-5.15-.59-5.15-3.2a6.41,6.41,0,0,1,.9-2.6c4.25-7.57,8.62-15,12.74-22.59l-.51-.36c-3.09,3.43-6.83,8.16-11.2,12.66a2.86,2.86,0,0,1-2.06.71,2.27,2.27,0,0,1-2.32-2.37,3.86,3.86,0,0,1,1-2.36c3.73-4.26,7.34-8.17,10.94-12.31s6.83-8.39,10.56-12.18a5.64,5.64,0,0,1,4.37-2.25c4,0,7.34,5.79,7.34,9,0,3.67-3,7.81-4.89,11,5.53-5.32,20.21-19.16,28.45-19.16,3.47,0,5.79,2.37,5.79,5.32,0,3.2-2.45,6.86-4,9.58-3,5.56-6.05,11.13-8,16.92a4.62,4.62,0,0,0-.26,1.31c0,.58.26.94.77.94,2.71,0,9.66-8.16,11.71-10.41a2.8,2.8,0,0,1,2.2-.83A2.37,2.37,0,0,1,327,245,4.3,4.3,0,0,1,325.62,247.67Z"/><path class="cls-1" d="M370.57,246.6a67.73,67.73,0,0,1-7.47,7.81c-7.72,6.86-16.86,11.24-27,11.24-8.11,0-14-3.31-14-11.35a14.63,14.63,0,0,1,.52-4.15,8,8,0,0,1-.9.12,3,3,0,0,1-1.68-.48,2,2,0,0,1-.77-1.53,4.9,4.9,0,0,1,1.16-2.6l2.31-2.61c8.63-9.58,20.86-23.42,34.37-23.42,5.79,0,10.17,2.49,10.17,8.17,0,11.23-17.37,20.34-27.16,24.13a4.41,4.41,0,0,0-.13,1.42c0,2.36,1,4.37,4,4.37,6.57,0,13.78-5.44,18.41-10.05,1.54-1.42,3.22-3.2,4.63-4.73a3.52,3.52,0,0,1,2.45-1.07,2.24,2.24,0,0,1,2.32,2.24A4.54,4.54,0,0,1,370.57,246.6Zm-13-20.7c-4.64,0-14.16,16.57-15.7,20.35C347.78,243.41,359,234,359,227.44A1.36,1.36,0,0,0,357.57,225.9Z"/><path class="cls-1" d="M411,247.43c-4.51,5.45-11.58,12.66-18.66,16.44a16.39,16.39,0,0,1-8,1.9c-5.54,0-9-2.73-9-7.93,0-9.35,16-22.72,16-26.38,0-1-1.15-1.07-1.8-1.07-1.15,0-2.19.25-3.34.25a7.33,7.33,0,0,1-1.68-.13c-3.47,4.26-7.33,8.52-10.42,12.18-2.32,2.73-4.64,5.33-6.31,7.1a3.3,3.3,0,0,1-2.32,1.19,2.5,2.5,0,0,1-2.57-2.49,3.24,3.24,0,0,1,.9-2.12c4.76-5.57,9.91-11.25,14.93-17.28a5.23,5.23,0,0,1-2.83-5c0-4.74,4.89-10.77,10.17-10.77,3.09,0,4.63,1.89,4.63,4.61a9.51,9.51,0,0,1-2.18,6,5.69,5.69,0,0,0,1.41.23c5.15,0,9.4-4.37,14.54-4.37a4.68,4.68,0,0,1,4.76,4.61c0,4.85-12.35,19.63-14.41,26.85a4.09,4.09,0,0,0-.26,1.42,1.06,1.06,0,0,0,1.16,1.19c2.7,0,9.78-8.16,11.84-10.41a2.42,2.42,0,0,1,1.93-.84,2.49,2.49,0,0,1,2.58,2.37A3.88,3.88,0,0,1,411,247.43Z"/><path class="cls-1" d="M444.35,247.9c-5,5.68-11.84,12.19-18.41,15.86a18.31,18.31,0,0,1-8.23,2c-5,0-7.47-2.26-7.47-6.87,0-5.44,6.31-15.61,9.4-20.58l-.39-.47c-3.47,3.9-6.18,7.57-10.17,11.83a3.06,3.06,0,0,1-2.19.94,2.4,2.4,0,0,1-2.57-2.36,3.88,3.88,0,0,1,1-2.37c3.48-3.9,6.56-7.45,10-11.59s6.95-8.4,10.68-12.54a5.17,5.17,0,0,1,4-2.13c4.12,0,8.63,6.5,8.63,9.94a11.64,11.64,0,0,1-1.68,5.32c-3,5.56-6.17,10.89-8.11,16.68a3.42,3.42,0,0,0-.25,1.31c0,.47.12.94.77.94,2.7,0,9.65-7.93,11.71-10.18a3,3,0,0,1,2.06-.95,2.32,2.32,0,0,1,2.58,2.26A4.18,4.18,0,0,1,444.35,247.9Zm-2.83-34.42c-4.51,0-8.11-3.08-8.11-7.34,0-5.91,6.31-11,12.49-11,4.5,0,8.1,3.19,8.1,7.32C454,208.51,447.7,213.48,441.52,213.48Z"/><path class="cls-1" d="M532.4,247.08a81.36,81.36,0,0,1-9.39,9.81,54.15,54.15,0,0,1-9.91,6.87,17.58,17.58,0,0,1-8,1.89c-4.64,0-7.47-2.36-7.47-6.75,0-7,9.91-20,9.91-22,0-.59-.25-.83-.77-.83-3.6,0-20.59,20.12-23.56,23.66-2.57,3.2-6.05,6-10.55,6-2.06,0-5.28-.84-5.28-3.2,0-3,13.52-22.94,13.52-25.67,0-.59-.26-.83-.78-.83-3.47,0-20.59,20-23.55,23.66-2.45,3.2-5.92,6-10.43,6-2.18,0-5.4-.84-5.4-3.2a6.26,6.26,0,0,1,.9-2.6c4.25-7.57,8.62-15,12.74-22.59l-.51-.36c-3.86,4.26-7.08,8.28-11.07,12.66a2.82,2.82,0,0,1-1.93.83,2.5,2.5,0,0,1-2.58-2.49,3.69,3.69,0,0,1,1-2.49c7.21-8,13.78-15.49,21.5-24.48a5.53,5.53,0,0,1,4.37-2.13c4,0,7.34,5.68,7.34,9,0,3.67-3,7.81-4.89,11,5.53-5.32,20.21-19.28,28.45-19.28a5.38,5.38,0,0,1,5.66,5.44c0,3.2-3,8.28-4.76,11.12,5.53-4.73,17.89-16.56,25.61-16.56,3.48,0,5.79,2.24,5.79,5.44,0,3-2.31,7.1-3.86,9.82-3,5.32-6,10.89-8.11,16.68a5.53,5.53,0,0,0-.25,1.31c0,.58.25.94.77.94,2.7,0,9.39-7.81,11.71-10.29a3.51,3.51,0,0,1,2.32-1.06,2.14,2.14,0,0,1,2.44,2.24A3.85,3.85,0,0,1,532.4,247.08Z"/><path class="cls-1" d="M589.71,247.31c-5.79,7-16.6,18.46-26.9,18.46-5,0-8-2.61-8-7.22a10.74,10.74,0,0,1,.39-2.84c-5.15,4.38-12.62,9.94-20,9.94-5.8,0-8.11-3.91-8.11-8.64a14,14,0,0,1,1.67-6.62c-1.41-.12-2.83-.6-3-2.37v-.23c0-.84.26-1.66,1.55-3,3.6-3.91,10-10.77,11.71-12.3,6.56-6,14.42-12.78,24.58-12.78,3.09,0,6.57.71,8,3.67,1.29-2.72,4-10.29,8-10.29,4.25,0,7.47,6.85,7.47,10.16a11.31,11.31,0,0,1-1.42,5.21c-4,7.69-8.88,15-11.84,23.07a5.59,5.59,0,0,0-.26,1.31c0,.58.26.94.77.94,2.58,0,8.63-7,11.59-10.18a3.17,3.17,0,0,1,2.06-1.06h.26c1.54.11,2.44.83,2.44,2.37A4.34,4.34,0,0,1,589.71,247.31Zm-25-19c-5.79,0-17.89,19.28-17.89,24.25,0,1.06.52,1.65,1.41,1.65,5.93,0,19.31-18.1,19.31-23.3C567.57,229.09,566.67,228.27,564.74,228.27Z"/><path class="cls-1" d="M27.38,208.45c0-68.32,110.35-68.32,110.35,0S27.38,276.91,27.38,208.45Zm82.22,0c0-35.57-53.94-35.57-53.94,0C55.66,244.3,109.6,244.3,109.6,208.45Z"/><path class="cls-1" d="M233.8,162.71l-44.11,72.41h44.57v22.59H148.35v-3.82l44-72.4h-40V158.91H233.8Z"/><path class="cls-1" d="M650.8,279.45c-9.5,7.79-18.43,16.25-28.58,23.25-51.53,35.53-110.53,54.11-174.17,60.64-59.85,6.14-119.23,1.48-178-9.79-28.07-5.38-56-11.23-84.13-16.49A403.27,403.27,0,0,0,63,333c-20.41,2.46-40.76,5.34-63,8.28,6.11-18,12.85-34.64,22.86-51.12,18.91-5.68,39.11-7.61,59.39-8.83,47.24-2.84,93.35,3.56,138.36,16,101,27.92,203.5,33.42,307.58,18.89,33.14-4.63,65.15-12.59,95.26-26.18,8.63-3.9,16.86-8.53,25.27-12.82Z"/><path class="cls-1" d="M248.25,403.1c-.26-1.77-1.3-2.61-3.27-2.61-1.73,0-3,.87-3,2.09a1.52,1.52,0,0,0,.8,1.38,13.83,13.83,0,0,0,3.51,1.17c2.77.73,3.93,1.26,4.67,2.05a4.13,4.13,0,0,1,1.07,2.89c0,3.29-2.6,5.28-7,5.28-4.77,0-7.44-2.06-7.44-5.71v-.09h3.53a3,3,0,0,0,.78,2.06,4.19,4.19,0,0,0,3,1c2,0,3.31-.89,3.31-2.33,0-.71-.34-1.17-1.17-1.57a23,23,0,0,0-3.94-1.23,8.46,8.46,0,0,1-3.71-1.71,4,4,0,0,1-1.2-2.92c0-3,2.74-5.06,6.78-5.06s6.57,1.9,6.81,5.27Z"/><path class="cls-1" d="M260.06,391.56v3.78H256v-3.78Zm-.2,6.73v16.6h-3.71v-16.6Z"/><path class="cls-1" d="M268,398.29a4.91,4.91,0,0,1,.36,2.27,6.42,6.42,0,0,1,5.44-2.65,5.73,5.73,0,0,1,5.18,2.56c.6,1.07.7,1.77.7,4.88v9.54H276v-9a7.79,7.79,0,0,0-.43-3.44,3,3,0,0,0-2.81-1.51,4,4,0,0,0-3.43,1.82,6.13,6.13,0,0,0-.64,3.25v8.87H264.9v-10.8c0-4.08,0-4.18-.5-5.8Z"/><path class="cls-1" d="M298.9,409.74a7,7,0,0,1-1.77,3.55,7.06,7.06,0,0,1-5.37,2.06c-5,0-8.25-3.47-8.25-8.75s3.24-8.77,8.28-8.77c3.74,0,6.31,2,7,5.46H295a3.13,3.13,0,0,0-3.31-2.67c-2.67,0-4.34,2.33-4.34,6a6.81,6.81,0,0,0,1.77,5,3.79,3.79,0,0,0,2.6.87,3.25,3.25,0,0,0,3.48-2.79Z"/><path class="cls-1" d="M305.4,407.34c.16,3.44,1.83,5.19,4.94,5.19a3.84,3.84,0,0,0,3.87-2.27h3.41c-.84,3.25-3.51,5.09-7.38,5.09-5.27,0-8.62-3.34-8.62-8.56,0-5.41,3.31-9,8.32-9,4.77,0,7.81,3.4,7.81,8.74v.77Zm8.54-2.58c-.36-2.76-1.73-4.2-4.07-4.2s-3.77,1.38-4.37,4.2Z"/><path class="cls-1" d="M340.29,397.67c.16-4.14,3-6.57,7.64-6.57s7.51,2.46,7.51,6.26c0,2.25-.83,3.87-3.67,7-1.44,1.59-3.27,3.55-6.78,7.21h10.72v3.28H340V412c.5-.56.56-.65,2.57-2.8,8.11-8.74,8.88-9.75,8.88-11.72s-1.5-3.23-3.71-3.23c-2.37,0-3.81,1.2-4.07,3.41Z"/><path class="cls-1" d="M376.93,403.2c0,7.55-3.31,12.06-8.82,12.06s-8.84-4.51-8.84-12.06,3.3-12.07,8.84-12.07S376.93,395.65,376.93,403.2Zm-12.05-7.34a17.22,17.22,0,0,0,0,14.67,3.87,3.87,0,0,0,6.44,0A14.3,14.3,0,0,0,373,403.2a14.49,14.49,0,0,0-1.67-7.34,3.64,3.64,0,0,0-3.21-1.72A3.59,3.59,0,0,0,364.88,395.86Z"/><path class="cls-1" d="M398.18,403.2c0,7.55-3.31,12.06-8.82,12.06s-8.84-4.51-8.84-12.06,3.3-12.07,8.84-12.07S398.18,395.65,398.18,403.2Zm-12.05-7.34a17.22,17.22,0,0,0,0,14.67,3.87,3.87,0,0,0,6.44,0,14.3,14.3,0,0,0,1.67-7.33,14.49,14.49,0,0,0-1.67-7.34,3.64,3.64,0,0,0-3.21-1.72A3.59,3.59,0,0,0,386.13,395.86Z"/><path class="cls-1" d="M405.22,415.32A35.57,35.57,0,0,0,413.1,406a8.2,8.2,0,0,1-3.74.83,7.21,7.21,0,0,1-7.61-7.59c0-4.78,3.44-8.1,8.41-8.1,5.14,0,8.25,3.19,8.25,8.56,0,3.78-1.4,7.25-4.54,11.27a31,31,0,0,1-4.14,4.39Zm.5-16.21c0,2.95,1.67,4.83,4.34,4.83s4.38-1.82,4.38-4.83-1.64-4.94-4.28-4.94S405.72,396.14,405.72,399.11Z"/><path class="cls-1" d="M696.46,269.65a15.68,15.68,0,1,1-15.84-15.32A15.55,15.55,0,0,1,696.46,269.65Zm-30.33.28a14.66,14.66,0,1,0,14.5-14.59A14.58,14.58,0,0,0,666.13,269.93Zm9.73,3.94-1.75,5.34-2.28,0,7.23-20.33,3.09,0,7.77,20.2-2.31,0-1.94-5.31Zm.38-1.11,9-.08-4.65-12.18Z"/><path class="cls-1" d="M43.57,33.3q9.6,2.23,13.48,5.42a14.44,14.44,0,0,1,5.58,11.75,15.53,15.53,0,0,1-6.12,12.59q-7.51,6-21.85,6H.36V67.25q4.68,0,6.35-.88a5.09,5.09,0,0,0,2.34-2.26q.67-1.39.67-6.87V13.44q0-5.47-.67-6.89A5,5,0,0,0,6.68,4.28C5.55,3.72,3.45,3.43.36,3.43V1.59H32.72q11.6,0,16.42,2.07a17.11,17.11,0,0,1,7.62,6.17,15.35,15.35,0,0,1,2.78,8.74A12.38,12.38,0,0,1,56,27.25Q52.47,31.06,43.57,33.3ZM25.45,35.84V57.49L25.4,60A5.46,5.46,0,0,0,26.77,64a5.46,5.46,0,0,0,4.05,1.37,15.64,15.64,0,0,0,7.35-1.76,12.14,12.14,0,0,0,5.15-5.13A15.73,15.73,0,0,0,45.11,51a16.57,16.57,0,0,0-2.19-8.49,11.86,11.86,0,0,0-6-5.25C34.34,36.29,30.52,35.8,25.45,35.84Zm0-3.88q7.07,0,10.43-1.6A11.84,11.84,0,0,0,41,25.88a13.79,13.79,0,0,0,1.79-7.36,13.79,13.79,0,0,0-1.77-7.35,11.23,11.23,0,0,0-5-4.35q-3.28-1.5-10.55-1.44Z"/><path class="cls-1" d="M95.33,62.22q-8.51,7.52-15.28,7.51a9,9,0,0,1-6.62-2.61,8.82,8.82,0,0,1-2.64-6.54q0-5.32,4.58-9.59t20-11.32V35q0-5.28-.57-6.64A5.27,5.27,0,0,0,92.59,26a6.48,6.48,0,0,0-3.58-1,9.21,9.21,0,0,0-5.33,1.44,2.54,2.54,0,0,0-1.29,2.09,4.32,4.32,0,0,0,1.39,2.59,6.39,6.39,0,0,1,1.9,4.13,5.53,5.53,0,0,1-1.82,4.16,6.66,6.66,0,0,1-4.76,1.71,7.59,7.59,0,0,1-5.25-1.89,5.76,5.76,0,0,1-2.11-4.43,10.26,10.26,0,0,1,2.84-6.84,17.89,17.89,0,0,1,7.91-5A32,32,0,0,1,93,21.15q6.61,0,10.48,2.82a13.13,13.13,0,0,1,5,6.09q.7,2.1.7,9.61V57.74a18.49,18.49,0,0,0,.25,4,2.34,2.34,0,0,0,.74,1.21,1.79,1.79,0,0,0,1.15.4c.86,0,1.74-.61,2.64-1.84l1.49,1.2a18.27,18.27,0,0,1-5.15,5.35,11.18,11.18,0,0,1-6,1.66,9.46,9.46,0,0,1-6.22-1.86A8.48,8.48,0,0,1,95.33,62.22Zm0-3.64V43a29.2,29.2,0,0,0-9,7.57A9.23,9.23,0,0,0,84.43,56a5.72,5.72,0,0,0,1.64,4,4.54,4.54,0,0,0,3.49,1.34Q92.05,61.37,95.33,58.58Z"/><path class="cls-1" d="M165.86,1.59V55.15a36,36,0,0,0,.3,6.42A4,4,0,0,0,167.68,64a8.17,8.17,0,0,0,3.91,1v1.64l-19.66,3.83V63.11a24.5,24.5,0,0,1-6.3,5.83,12.59,12.59,0,0,1-6.25,1.54q-8.91,0-14.08-8-4.18-6.48-4.19-15.88a33.57,33.57,0,0,1,2.59-13.47,20.16,20.16,0,0,1,7.1-9,17,17,0,0,1,9.68-3,13.12,13.12,0,0,1,5.92,1.3A19.76,19.76,0,0,1,151.93,27v-14q0-5.32-.45-6.42a4.34,4.34,0,0,0-1.79-2.14,9.91,9.91,0,0,0-4.48-.7V1.59ZM151.93,33.15q-3.69-7.06-9-7.07a4.56,4.56,0,0,0-3,1,11.14,11.14,0,0,0-3,5.42q-1.17,3.89-1.17,11.9,0,8.81,1.29,13a12.66,12.66,0,0,0,3.54,6.12,4.77,4.77,0,0,0,3.13,1q4.38,0,8.27-6.87Z"/><path class="cls-1" d="M196.62,22.55v6.12a26.61,26.61,0,0,1,7.1-5.85,15.45,15.45,0,0,1,7.14-1.67,13,13,0,0,1,7.51,2.09,13.13,13.13,0,0,1,4.68,6.38,29.47,29.47,0,0,1,7.64-6.47,15.77,15.77,0,0,1,7.64-2A12.21,12.21,0,0,1,246,23.37,11.55,11.55,0,0,1,250,29q1.11,3.42,1.12,10.88V58.93q0,5.38,1,6.67c.64.87,2,1.43,4,1.69v1.8h-24v-1.8a5.3,5.3,0,0,0,4.18-2.19q.9-1.34.9-6.17v-20a37.23,37.23,0,0,0-.5-7.91,4.64,4.64,0,0,0-1.57-2.51,4,4,0,0,0-2.51-.83,7.46,7.46,0,0,0-4.33,1.57A20.15,20.15,0,0,0,223.85,34v25c0,3.36.28,5.46.85,6.32q1.14,1.84,4.38,2v1.8H205v-1.8a5.24,5.24,0,0,0,3.07-1,4.18,4.18,0,0,0,1.49-2.09,22.94,22.94,0,0,0,.37-5.3v-20q0-6.31-.49-7.91a4.93,4.93,0,0,0-1.67-2.49,4.05,4.05,0,0,0-2.52-.9,6.63,6.63,0,0,0-3.63,1.05,20.36,20.36,0,0,0-5,5.28v25c0,3.29.33,5.45,1,6.5s2,1.67,4.06,1.86v1.8h-24v-1.8a5.71,5.71,0,0,0,4.18-1.89c.56-.73.85-2.88.85-6.47V32.65c0-3.51-.33-5.71-1-6.57s-2-1.42-4.06-1.69V22.55Z"/><path class="cls-1" d="M280.39,22.55V59.43c0,3.29.38,5.38,1.15,6.3s2.25,1.43,4.48,1.56v1.8H260.88v-1.8a6,6,0,0,0,4.58-1.79c.66-.76,1-2.78,1-6.07V32.25c0-3.28-.39-5.38-1.15-6.29s-2.24-1.44-4.43-1.57V22.55ZM273.43,0a7.4,7.4,0,0,1,5.47,2.26,7.49,7.49,0,0,1,2.24,5.45,7.34,7.34,0,0,1-2.26,5.43,7.51,7.51,0,0,1-5.45,2.24A7.4,7.4,0,0,1,268,13.14a7.4,7.4,0,0,1-2.24-5.43A7.49,7.49,0,0,1,268,2.26,7.34,7.34,0,0,1,273.43,0Z"/><path class="cls-1" d="M309.56,22.55v6a27.38,27.38,0,0,1,6.87-5.65,14.69,14.69,0,0,1,7.07-1.77A11.23,11.23,0,0,1,331,23.67a12,12,0,0,1,4,6.24q.79,2.85.79,10.9V58.93c0,3.59.33,5.82,1,6.7s2,1.43,4.06,1.66v1.8H317.28v-1.8a4.91,4.91,0,0,0,3.78-2.19q.79-1.23.8-6.17V38.23a33.69,33.69,0,0,0-.45-7.22,4.45,4.45,0,0,0-1.52-2.32,3.83,3.83,0,0,0-2.37-.82q-4.27,0-8,6.13V58.93c0,3.49.33,5.69,1,6.62a5,5,0,0,0,3.61,1.74v1.8H290.6v-1.8a5.73,5.73,0,0,0,4.18-1.89c.56-.73.84-2.88.84-6.47V32.65c0-3.51-.32-5.71-1-6.57s-2-1.42-4-1.69V22.55Z"/><path class="cls-1" d="M365.71,5.52v17h11.05v4.93H365.71V56.2a21.94,21.94,0,0,0,.37,5.2,3.76,3.76,0,0,0,1.32,1.89,3,3,0,0,0,1.74.72q3.24,0,6.12-4.93l1.5,1.1q-4,9.56-13.09,9.55a11.56,11.56,0,0,1-7.49-2.46,10.81,10.81,0,0,1-3.91-5.5q-.5-1.7-.5-9.16V27.48H345.7V25.73a63.85,63.85,0,0,0,10.67-9.3,56.7,56.7,0,0,0,7.69-10.91Z"/><path class="cls-1" d="M403.14,21.15a21.62,21.62,0,0,1,11.3,3.14,20.09,20.09,0,0,1,7.94,8.91,29.47,29.47,0,0,1,2.71,12.64q0,9.91-5,16.58-6.07,8.06-16.77,8.06-10.52,0-16.18-7.37A27.2,27.2,0,0,1,381.44,46a27.57,27.57,0,0,1,5.79-17.44Q393,21.16,403.14,21.15Zm.2,3.54A5.81,5.81,0,0,0,399,26.6q-1.82,1.92-2.39,7.57T396,49.87a66.25,66.25,0,0,0,.7,10,9.49,9.49,0,0,0,2.34,5.37,5.54,5.54,0,0,0,4.08,1.85,5.62,5.62,0,0,0,3.73-1.25,8.37,8.37,0,0,0,2.59-4.73q1-4.73,1-19.11,0-8.46-.94-11.62a8.91,8.91,0,0,0-2.79-4.61A5.25,5.25,0,0,0,403.34,24.69Z"/><path class="cls-1" d="M451.17,22.55v6A27.38,27.38,0,0,1,458,22.92a14.66,14.66,0,0,1,7.07-1.77,11.23,11.23,0,0,1,7.51,2.52,12,12,0,0,1,4,6.24q.79,2.85.8,10.9V58.93q0,5.38,1,6.7c.65.88,2,1.43,4.06,1.66v1.8H458.88v-1.8a4.93,4.93,0,0,0,3.79-2.19q.79-1.23.79-6.17V38.23A34.68,34.68,0,0,0,463,31a4.45,4.45,0,0,0-1.52-2.32,3.85,3.85,0,0,0-2.37-.82q-4.28,0-8,6.13V58.93c0,3.49.32,5.69,1,6.62a5,5,0,0,0,3.61,1.74v1.8H432.21v-1.8a5.73,5.73,0,0,0,4.18-1.89c.56-.73.84-2.88.84-6.47V32.65c0-3.51-.32-5.71-1-6.57s-2-1.42-4.05-1.69V22.55Z"/><path class="cls-1" d="M552.31,57.09l1.54,1.2a23.3,23.3,0,0,1-8.18,9.18,19.59,19.59,0,0,1-10.43,3,18,18,0,0,1-14.88-7,26.27,26.27,0,0,1-5.58-16.87,28.33,28.33,0,0,1,5.08-16.73,19.52,19.52,0,0,1,16.87-8.71q7.21,0,11.47,3.64t4.26,8.11a5.86,5.86,0,0,1-6.22,6.22,6.49,6.49,0,0,1-4.85-1.94q-1.92-1.93-2.37-6.92a7.63,7.63,0,0,0-1.44-4.38,3.55,3.55,0,0,0-2.69-1.24,4.86,4.86,0,0,0-4.08,2.54q-2.59,3.83-2.59,11.74a38,38,0,0,0,2.09,12.57A19.33,19.33,0,0,0,536,60.43a10.27,10.27,0,0,0,6.48,2.14,9.76,9.76,0,0,0,4.62-1.15A21.07,21.07,0,0,0,552.31,57.09Z"/><path class="cls-1" d="M577.8,1.59V59.43c0,3.29.38,5.38,1.14,6.3s2.26,1.43,4.48,1.56v1.8H558.28v-1.8a6,6,0,0,0,4.58-1.79q1-1.14,1-6.07V11.25q0-4.87-1.15-6.25t-4.43-1.57V1.59Z"/><path class="cls-1" d="M632.85,22.55V59q0,5.33,1,6.65c.67.88,2,1.43,4,1.66v1.8h-19V62.87a24,24,0,0,1-6.67,5.79,15.35,15.35,0,0,1-7.47,1.82,11,11,0,0,1-7-2.41,11.86,11.86,0,0,1-4.11-5.65q-1-3.24-1-11.3V32.65c0-3.51-.33-5.71-1-6.57s-2-1.42-4.06-1.69V22.55h19v31.8a26,26,0,0,0,.48,6.42A4.16,4.16,0,0,0,608.53,63a3.89,3.89,0,0,0,2.37.75,5.76,5.76,0,0,0,3.23-.94,20.71,20.71,0,0,0,4.78-5.23V32.65c0-3.51-.32-5.71-1-6.57s-2-1.42-4.06-1.69V22.55Z"/><path class="cls-1" d="M662.61,1.59V27.23q5.88-6.07,12.84-6.08a16,16,0,0,1,9,2.82,18.65,18.65,0,0,1,6.62,8,28.09,28.09,0,0,1,2.39,11.94,31.06,31.06,0,0,1-3,13.84,22.69,22.69,0,0,1-8.11,9.48,21,21,0,0,1-11.6,3.26A17.77,17.77,0,0,1,664,69.29a18.74,18.74,0,0,1-5.78-3.89l-7.71,5h-1.7V11.25a19.7,19.7,0,0,0-.35-5,3.82,3.82,0,0,0-1.56-2.06,7.76,7.76,0,0,0-3.61-.78V1.59Zm0,30.07v20.7a63.84,63.84,0,0,0,.3,8.07,8.31,8.31,0,0,0,2.39,4.75,7.29,7.29,0,0,0,9.18.37c1.21-1,2.23-2.87,3-5.72s1.22-8,1.22-15.43q0-10.71-2.69-14.68a6,6,0,0,0-5.23-2.89Q666.55,26.83,662.61,31.66Z"/></g></g></svg>